<svg version="1.1" id="Layer_1" xmlns="http://www.w3.org/2000/svg" xmlns:xlink="http://www.w3.org/1999/xlink" x="0px" y="0px"
	 width="100%" viewBox="0 0 232 182" enable-background="new 0 0 232 182" xml:space="preserve">
<path fill="#FDFDFD" opacity="1.000000" stroke="none" 
	d="
M233.000000,136.000000 
	C233.000000,151.658157 233.000000,167.316315 233.000000,182.980865 
	C155.717163,182.987244 78.434334,182.987244 1.075748,182.987244 
	C1.075748,122.416855 1.075748,61.833588 1.075748,1.125161 
	C78.333221,1.125161 155.666580,1.125161 232.999969,1.124296 
	C233.000000,38.436516 233.000000,75.749596 232.647552,113.442680 
	C231.116501,110.895561 229.982544,107.949509 228.750854,105.044899 
	C225.189789,96.647064 222.154465,87.961571 217.846863,79.963020 
	C213.462540,71.821999 201.981766,71.278992 197.778122,79.283928 
	C191.683899,90.889084 187.112595,103.293961 181.342407,116.627068 
	C186.190063,114.985977 191.463196,118.785889 192.533707,113.121239 
	C194.459381,102.931496 200.326721,100.085625 209.690338,101.846130 
	C210.653885,102.027298 211.710846,102.027077 212.673447,101.843529 
	C216.975998,101.023125 218.732117,103.176003 220.046753,107.033005 
	C223.182739,116.233696 223.369720,116.169968 233.000000,116.000000 
	C233.000000,119.361290 233.000000,122.722572 232.667267,126.505318 
	C231.310394,127.257156 230.286270,127.587532 228.889343,127.938919 
	C226.997559,127.613602 225.478577,127.267273 223.319931,126.775101 
	C223.254715,127.830376 223.186142,128.940033 223.128296,130.390350 
	C223.460037,137.348038 224.741089,138.195999 231.557358,136.314987 
	C232.031128,136.184250 232.518799,136.103821 233.000000,136.000000 
M205.149048,132.263199 
	C201.249680,131.914963 201.249680,131.914963 201.889984,128.346664 
	C203.735748,128.174728 205.581497,128.002792 207.427261,127.830864 
	C207.409866,127.481293 207.392471,127.131714 207.375076,126.782135 
	C204.785400,126.782135 202.195724,126.782135 199.316422,126.782135 
	C199.316422,130.126663 199.316422,133.339005 199.316422,136.793015 
	C200.478455,136.694031 201.394638,136.615982 202.370667,136.532852 
	C201.941025,135.242783 201.579788,134.158127 201.207291,133.039658 
	C203.073380,132.594376 204.489807,132.256393 206.326584,131.900009 
	C206.560883,131.799728 206.795181,131.699448 207.029480,131.599167 
	C206.916916,131.543457 206.758698,131.410461 206.699661,131.445343 
	C206.439316,131.599182 206.207565,131.801376 205.149048,132.263199 
M16.313572,135.723831 
	C17.971937,136.159912 19.630302,136.595993 21.288666,137.032074 
	C21.375801,136.427719 21.462934,135.823380 21.550070,135.219040 
	C19.738003,135.104279 17.925934,134.989532 16.082300,134.053299 
	C16.082300,132.492630 16.082300,130.931961 16.082300,130.148865 
	C19.314226,129.374451 21.618238,128.822372 23.922251,128.270309 
	C23.814112,127.744598 23.705975,127.218887 23.597837,126.693176 
	C22.007864,126.693176 19.922417,127.341690 18.918467,126.574661 
	C15.566149,124.013458 14.071187,126.686714 13.476597,128.731430 
	C12.834737,130.938721 11.084051,134.578857 16.313572,135.723831 
M191.067429,132.373764 
	C192.412674,132.270233 193.757904,132.166702 195.103149,132.063171 
	C195.098404,131.846222 195.093643,131.629257 195.088882,131.412308 
	C193.173660,130.931549 191.258438,130.450790 189.343201,129.970032 
	C189.395004,129.496338 189.446808,129.022644 189.498611,128.548965 
	C191.549164,128.265091 193.599701,127.981209 195.650253,127.697334 
	C195.622040,127.424828 195.593826,127.152328 195.565613,126.879822 
	C193.104431,126.879822 190.643234,126.879822 188.253326,126.879822 
	C188.253326,130.398956 188.253326,133.619263 188.253326,136.686127 
	C190.906631,136.686127 193.139801,136.686127 195.588577,136.686127 
	C193.840820,134.531036 189.424591,138.433548 189.983963,133.008270 
	C190.116089,132.873520 190.248230,132.738785 191.067429,132.373764 
M101.442009,73.957726 
	C95.608955,73.963379 89.771835,73.833313 83.943817,74.007439 
	C75.806099,74.250587 69.656036,80.025108 69.132713,88.045990 
	C68.829575,92.692101 68.826195,97.391106 69.137375,102.036201 
	C69.609985,109.090904 74.809631,115.331932 81.505974,115.759605 
	C90.583885,116.339386 99.726654,115.903870 108.967148,115.903870 
	C108.967148,113.077431 108.967148,110.678192 108.967148,107.853836 
	C101.221367,107.853836 93.754654,107.932770 86.290504,107.828026 
	C80.652977,107.748924 78.505638,105.307083 78.509117,98.791306 
	C88.570366,98.791306 98.650482,98.791306 108.681686,98.791306 
	C108.681686,95.939209 108.681686,93.690948 108.681686,91.029007 
	C98.420021,91.029007 88.473610,91.029007 78.544746,91.029007 
	C78.476952,84.687889 80.574425,82.292114 86.304787,82.203140 
	C93.891510,82.085320 101.481453,82.174110 109.017082,82.174110 
	C109.017082,79.086151 109.017082,76.802986 109.017082,73.958191 
	C106.662590,73.958191 104.544380,73.958191 101.442009,73.957726 
M144.279785,91.075478 
	C138.157043,91.075478 132.034302,91.075478 125.947365,91.075478 
	C125.662186,84.901222 127.707146,82.373863 133.091522,82.221550 
	C138.704193,82.062775 144.324860,82.186119 149.911209,82.186119 
	C149.911209,79.147491 149.911209,76.704620 149.911209,73.992630 
	C143.189255,73.992630 136.713715,73.776268 130.259140,74.051620 
	C123.382164,74.344986 117.349403,79.104485 116.845650,85.935387 
	C116.118034,95.801895 116.659531,105.761986 116.659531,115.784698 
	C119.572105,115.784698 122.320763,115.784698 125.635574,115.784698 
	C125.635574,110.112045 125.635574,104.706688 125.635574,98.792030 
	C134.291229,98.792030 142.390396,98.792030 150.417511,98.792030 
	C151.071243,92.168427 150.401657,91.254356 144.279785,91.075478 
M156.401779,102.829239 
	C157.102356,107.970352 159.497635,112.496780 164.313324,114.137611 
	C168.710556,115.635872 173.763062,116.007774 178.397003,115.553230 
	C179.883392,115.407440 180.956299,111.046082 182.472763,108.123024 
	C180.258133,108.019539 178.801987,107.900894 177.345169,107.891510 
	C166.770325,107.823372 165.586105,106.641769 165.595428,96.127098 
	C165.601898,88.843971 165.596680,81.560829 165.596680,74.253395 
	C162.183441,74.253395 159.434982,74.253395 156.273636,74.253395 
	C156.273636,83.698013 156.273636,92.827644 156.401779,102.829239 
M44.978802,97.999702 
	C45.017311,97.006592 45.128075,96.010147 45.082458,95.020920 
	C44.812168,89.159546 40.627148,84.388680 34.805702,83.255791 
	C29.439714,82.211540 23.663834,85.234940 21.284916,90.333282 
	C18.845745,95.560753 20.134792,101.413734 24.559460,105.201439 
	C31.501968,111.144531 40.829220,108.210831 44.978802,97.999702 
M54.614529,88.317299 
	C59.864777,85.589668 61.975117,81.576729 60.451431,77.218056 
	C58.872398,72.701035 54.081436,70.061455 49.341007,71.096771 
	C45.134327,72.015511 42.338135,76.344643 42.932632,81.018349 
	C43.586609,86.159653 47.616840,88.931938 54.614529,88.317299 
M73.143959,67.489250 
	C73.011543,63.057560 70.692207,60.825005 66.295776,60.933849 
	C62.704056,61.022766 60.459976,62.864574 60.035061,66.537277 
	C59.603607,70.266457 60.878822,73.234276 64.817863,73.846573 
	C68.999588,74.496590 72.331352,73.115265 73.143959,67.489250 
M61.803307,99.122276 
	C61.200268,93.805840 58.204697,91.136261 53.866783,92.049446 
	C50.543339,92.749069 47.867085,96.501747 49.311653,99.600922 
	C50.291580,101.703270 53.025932,104.517044 54.752697,104.371284 
	C57.136349,104.170067 59.309940,101.480392 61.803307,99.122276 
M11.613697,106.056740 
	C9.601920,110.505798 10.833294,114.540161 14.688279,114.791336 
	C16.609657,114.916527 19.534977,113.847115 20.382433,112.380096 
	C21.292061,110.805428 21.048588,107.608986 19.967892,106.048615 
	C18.004385,103.213562 14.914788,103.506569 11.613697,106.056740 
M220.735779,128.591553 
	C218.770615,126.183891 212.432953,124.906776 210.702438,126.569717 
	C209.211884,128.002075 209.891891,134.692749 211.875137,136.830444 
	C213.948059,135.376266 211.484360,128.708084 217.450806,131.693008 
	C217.903305,133.437424 218.355042,135.178833 218.806763,136.920242 
	C219.285812,136.890488 219.764877,136.860733 220.243927,136.830978 
	C220.461182,134.328918 220.678421,131.826874 220.735779,128.591553 
M48.136978,64.061050 
	C49.920418,65.259048 51.703857,66.457054 53.487301,67.655052 
	C54.628220,65.479286 56.272331,63.382416 56.632664,61.084263 
	C56.756058,60.297276 53.720276,58.236332 52.027550,58.110901 
	C48.842125,57.874859 47.499504,60.053619 48.136978,64.061050 
M46.516018,128.953751 
	C45.413963,128.372894 44.311905,127.792046 42.761448,126.974854 
	C42.517357,128.994644 42.044472,130.996094 42.122822,132.975723 
	C42.169891,134.165085 43.116173,136.341095 43.590576,136.322739 
	C46.342152,136.216263 49.073597,135.589554 51.811852,135.138809 
	C50.919918,133.885040 50.051960,132.613251 49.127373,131.384033 
	C48.539074,130.601898 47.866737,129.882950 46.516018,128.953751 
M75.268173,62.151134 
	C77.011566,61.674263 79.130753,61.623909 80.348785,60.550755 
	C81.014183,59.964500 80.625641,57.304413 79.835342,56.216927 
	C79.184906,55.321899 76.955467,54.685108 75.924698,55.119007 
	C72.552574,56.538479 72.166954,59.015480 75.268173,62.151134 
M87.317024,47.025974 
	C86.248039,48.177650 84.964722,49.217323 84.262695,50.560760 
	C84.089973,50.891289 85.777069,52.867306 86.671928,52.915245 
	C87.847771,52.978237 89.085747,51.881542 90.296997,51.283554 
	C89.557449,49.891884 88.817909,48.500217 87.317024,47.025974 
M155.516876,135.871841 
	C158.862610,135.871841 162.208359,135.871841 165.554092,135.871841 
	C165.528366,135.410583 165.502625,134.949326 165.476883,134.488068 
	C162.272705,134.750015 159.068512,135.011963 155.516876,135.871841 
M161.544830,133.892426 
	C161.785950,133.757431 162.027054,133.622437 162.268158,133.487442 
	C162.020370,133.363510 161.732712,133.099594 161.536133,133.155548 
	C161.344696,133.210052 161.246460,133.591934 161.544830,133.892426 
z"/>
<path fill="#525354" opacity="1.000000" stroke="none" 
	d="
M233.000000,115.666672 
	C223.369720,116.169968 223.182739,116.233696 220.046753,107.033005 
	C218.732117,103.176003 216.975998,101.023125 212.673447,101.843529 
	C211.710846,102.027077 210.653885,102.027298 209.690338,101.846130 
	C200.326721,100.085625 194.459381,102.931496 192.533707,113.121239 
	C191.463196,118.785889 186.190063,114.985977 181.342407,116.627068 
	C187.112595,103.293961 191.683899,90.889084 197.778122,79.283928 
	C201.981766,71.278992 213.462540,71.821999 217.846863,79.963020 
	C222.154465,87.961571 225.189789,96.647064 228.750854,105.044899 
	C229.982544,107.949509 231.116501,110.895561 232.647552,113.911339 
	C233.000000,114.444443 233.000000,114.888893 233.000000,115.666672 
M214.766922,92.897179 
	C213.861526,90.581650 213.291733,88.040184 211.936676,86.027367 
	C210.980377,84.606842 209.009247,83.208603 207.397675,83.091919 
	C206.021790,82.992287 203.933578,84.404732 203.184982,85.727936 
	C201.699234,88.354149 200.919510,91.379791 199.463943,95.265656 
	C205.305237,94.673752 210.084244,94.189491 214.766922,92.897179 
z"/>
<path fill="#CECECE" opacity="1.000000" stroke="none" 
	d="
M233.000000,135.625000 
	C232.518799,136.103821 232.031128,136.184250 231.557358,136.314987 
	C224.741089,138.195999 223.460037,137.348038 223.507889,130.395065 
	C225.907852,130.367188 227.938919,130.675232 230.011475,131.272003 
	C230.385468,131.692734 230.717987,131.824722 231.023773,131.975403 
	C230.997055,131.994095 231.026184,131.935669 231.076309,132.262665 
	C231.750961,132.726440 232.375473,132.863220 233.000000,133.000000 
	C233.000000,133.750000 233.000000,134.500000 233.000000,135.625000 
z"/>
<path fill="#EFF0F1" opacity="1.000000" stroke="none" 
	d="
M229.970001,130.983276 
	C227.938919,130.675232 225.907852,130.367188 223.497177,130.054413 
	C223.186142,128.940033 223.254715,127.830376 223.319931,126.775101 
	C225.478577,127.267273 226.997559,127.613602 229.208771,127.965813 
	C230.933975,128.647797 231.966995,129.323898 233.000000,130.000000 
	C233.000000,130.444443 233.000000,130.888901 232.650345,131.529129 
	C231.875854,131.795166 231.451019,131.865417 231.026184,131.935669 
	C231.026184,131.935669 230.997055,131.994095 231.105408,131.656555 
	C230.799179,131.207092 230.384598,131.095184 229.970001,130.983276 
z"/>
<path fill="#9A9A9A" opacity="1.000000" stroke="none" 
	d="
M233.000000,129.625000 
	C231.966995,129.323898 230.933975,128.647797 229.581543,127.944801 
	C230.286270,127.587532 231.310394,127.257156 232.667267,126.963387 
	C233.000000,127.750000 233.000000,128.500000 233.000000,129.625000 
z"/>
<path fill="#787878" opacity="1.000000" stroke="none" 
	d="
M231.076309,132.262665 
	C231.451019,131.865417 231.875854,131.795166 232.650345,131.862457 
	C233.000000,132.000000 233.000000,132.500000 233.000000,132.750000 
	C232.375473,132.863220 231.750961,132.726440 231.076309,132.262665 
z"/>
<path fill="#515254" opacity="1.000000" stroke="none" 
	d="
M101.934097,73.957962 
	C104.544380,73.958191 106.662590,73.958191 109.017082,73.958191 
	C109.017082,76.802986 109.017082,79.086151 109.017082,82.174110 
	C101.481453,82.174110 93.891510,82.085320 86.304787,82.203140 
	C80.574425,82.292114 78.476952,84.687889 78.544746,91.029007 
	C88.473610,91.029007 98.420021,91.029007 108.681686,91.029007 
	C108.681686,93.690948 108.681686,95.939209 108.681686,98.791306 
	C98.650482,98.791306 88.570366,98.791306 78.509117,98.791306 
	C78.505638,105.307083 80.652977,107.748924 86.290504,107.828026 
	C93.754654,107.932770 101.221367,107.853836 108.967148,107.853836 
	C108.967148,110.678192 108.967148,113.077431 108.967148,115.903870 
	C99.726654,115.903870 90.583885,116.339386 81.505974,115.759605 
	C74.809631,115.331932 69.609985,109.090904 69.137375,102.036201 
	C68.826195,97.391106 68.829575,92.692101 69.132713,88.045990 
	C69.656036,80.025108 75.806099,74.250587 83.943817,74.007439 
	C89.771835,73.833313 95.608955,73.963379 101.934097,73.957962 
z"/>
<path fill="#535455" opacity="1.000000" stroke="none" 
	d="
M144.747375,91.076233 
	C150.401657,91.254356 151.071243,92.168427 150.417511,98.792030 
	C142.390396,98.792030 134.291229,98.792030 125.635574,98.792030 
	C125.635574,104.706688 125.635574,110.112045 125.635574,115.784698 
	C122.320763,115.784698 119.572105,115.784698 116.659531,115.784698 
	C116.659531,105.761986 116.118034,95.801895 116.845650,85.935387 
	C117.349403,79.104485 123.382164,74.344986 130.259140,74.051620 
	C136.713715,73.776268 143.189255,73.992630 149.911209,73.992630 
	C149.911209,76.704620 149.911209,79.147491 149.911209,82.186119 
	C144.324860,82.186119 138.704193,82.062775 133.091522,82.221550 
	C127.707146,82.373863 125.662186,84.901222 125.947365,91.075478 
	C132.034302,91.075478 138.157043,91.075478 144.747375,91.076233 
z"/>
<path fill="#575758" opacity="1.000000" stroke="none" 
	d="
M156.337708,102.393250 
	C156.273636,92.827644 156.273636,83.698013 156.273636,74.253395 
	C159.434982,74.253395 162.183441,74.253395 165.596680,74.253395 
	C165.596680,81.560829 165.601898,88.843971 165.595428,96.127098 
	C165.586105,106.641769 166.770325,107.823372 177.345169,107.891510 
	C178.801987,107.900894 180.258133,108.019539 182.472763,108.123024 
	C180.956299,111.046082 179.883392,115.407440 178.397003,115.553230 
	C173.763062,116.007774 168.710556,115.635872 164.313324,114.137611 
	C159.497635,112.496780 157.102356,107.970352 156.337708,102.393250 
z"/>
<path fill="#CE2132" opacity="1.000000" stroke="none" 
	d="
M44.921230,98.407425 
	C40.829220,108.210831 31.501968,111.144531 24.559460,105.201439 
	C20.134792,101.413734 18.845745,95.560753 21.284916,90.333282 
	C23.663834,85.234940 29.439714,82.211540 34.805702,83.255791 
	C40.627148,84.388680 44.812168,89.159546 45.082458,95.020920 
	C45.128075,96.010147 45.017311,97.006592 44.921230,98.407425 
M23.478567,91.239891 
	C23.824516,92.444458 24.170465,93.649017 24.516413,94.853584 
	C25.336657,93.977432 26.588060,93.232552 26.901756,92.202187 
	C28.190680,87.968582 30.594875,86.113106 35.064110,87.494202 
	C35.780811,87.715675 36.648598,87.448250 38.380100,87.358391 
	C30.282368,83.830017 28.205313,84.398102 23.478567,91.239891 
z"/>
<path fill="#525254" opacity="1.000000" stroke="none" 
	d="
M54.243469,88.430405 
	C47.616840,88.931938 43.586609,86.159653 42.932632,81.018349 
	C42.338135,76.344643 45.134327,72.015511 49.341007,71.096771 
	C54.081436,70.061455 58.872398,72.701035 60.451431,77.218056 
	C61.975117,81.576729 59.864777,85.589668 54.243469,88.430405 
z"/>
<path fill="#ABABAF" opacity="1.000000" stroke="none" 
	d="
M73.132538,67.898941 
	C72.331352,73.115265 68.999588,74.496590 64.817863,73.846573 
	C60.878822,73.234276 59.603607,70.266457 60.035061,66.537277 
	C60.459976,62.864574 62.704056,61.022766 66.295776,60.933849 
	C70.692207,60.825005 73.011543,63.057560 73.132538,67.898941 
z"/>
<path fill="#ACADAF" opacity="1.000000" stroke="none" 
	d="
M61.688408,99.489410 
	C59.309940,101.480392 57.136349,104.170067 54.752697,104.371284 
	C53.025932,104.517044 50.291580,101.703270 49.311653,99.600922 
	C47.867085,96.501747 50.543339,92.749069 53.866783,92.049446 
	C58.204697,91.136261 61.200268,93.805840 61.688408,99.489410 
z"/>
<path fill="#AEADB2" opacity="1.000000" stroke="none" 
	d="
M11.872088,105.776413 
	C14.914788,103.506569 18.004385,103.213562 19.967892,106.048615 
	C21.048588,107.608986 21.292061,110.805428 20.382433,112.380096 
	C19.534977,113.847115 16.609657,114.916527 14.688279,114.791336 
	C10.833294,114.540161 9.601920,110.505798 11.872088,105.776413 
z"/>
<path fill="#CECECE" opacity="1.000000" stroke="none" 
	d="
M220.815735,128.958191 
	C220.678421,131.826874 220.461182,134.328918 220.243927,136.830978 
	C219.764877,136.860733 219.285812,136.890488 218.806763,136.920242 
	C218.355042,135.178833 217.903305,133.437424 217.450806,131.693008 
	C211.484360,128.708084 213.948059,135.376266 211.875137,136.830444 
	C209.891891,134.692749 209.211884,128.002075 210.702438,126.569717 
	C212.432953,124.906776 218.770615,126.183891 220.815735,128.958191 
z"/>
<path fill="#C53243" opacity="1.000000" stroke="none" 
	d="
M48.110580,63.650753 
	C47.499504,60.053619 48.842125,57.874859 52.027550,58.110901 
	C53.720276,58.236332 56.756058,60.297276 56.632664,61.084263 
	C56.272331,63.382416 54.628220,65.479286 53.487297,67.655052 
	C51.703857,66.457054 49.920418,65.259048 48.110580,63.650753 
z"/>
<path fill="#C9C9C9" opacity="1.000000" stroke="none" 
	d="
M46.874050,129.044708 
	C47.866737,129.882950 48.539074,130.601898 49.127373,131.384033 
	C50.051960,132.613251 50.919918,133.885040 51.811852,135.138794 
	C49.073597,135.589554 46.342152,136.216263 43.590576,136.322739 
	C43.116173,136.341095 42.169891,134.165085 42.122822,132.975723 
	C42.044472,130.996094 42.517357,128.994644 42.761448,126.974854 
	C44.311905,127.792046 45.413963,128.372894 46.874050,129.044708 
M48.255268,133.084122 
	C46.975361,133.237427 45.695454,133.390747 44.415546,133.544052 
	C44.461926,133.943878 44.508305,134.343689 44.554684,134.743500 
	C46.307213,134.743500 48.059742,134.743500 49.812275,134.743500 
	C49.551781,134.196487 49.291286,133.649475 48.255268,133.084122 
z"/>
<path fill="#C63241" opacity="1.000000" stroke="none" 
	d="
M74.930832,61.989037 
	C72.166954,59.015480 72.552574,56.538479 75.924698,55.119007 
	C76.955467,54.685108 79.184906,55.321899 79.835342,56.216927 
	C80.625641,57.304413 81.014183,59.964500 80.348785,60.550755 
	C79.130753,61.623909 77.011566,61.674263 74.930832,61.989037 
z"/>
<path fill="#636363" opacity="1.000000" stroke="none" 
	d="
M189.577545,133.402390 
	C189.424591,138.433548 193.840820,134.531036 195.588577,136.686127 
	C193.139801,136.686127 190.906631,136.686127 188.253326,136.686127 
	C188.253326,133.619263 188.253326,130.398956 188.253326,126.879822 
	C190.643234,126.879822 193.104431,126.879822 195.565613,126.879822 
	C195.593826,127.152328 195.622040,127.424828 195.650253,127.697334 
	C193.599701,127.981209 191.549164,128.265091 189.498611,128.548965 
	C189.446808,129.022644 189.395004,129.496338 189.343201,129.970032 
	C191.258438,130.450790 193.173660,130.931549 195.088882,131.412308 
	C195.093643,131.629257 195.098404,131.846222 195.103149,132.063171 
	C193.757904,132.166702 192.412674,132.270233 190.555328,132.361267 
	C189.888000,132.699982 189.732773,133.051178 189.577545,133.402390 
z"/>
<path fill="#EDEDED" opacity="1.000000" stroke="none" 
	d="
M15.918415,135.105576 
	C11.084051,134.578857 12.834737,130.938721 13.476597,128.731430 
	C14.071187,126.686714 15.566149,124.013458 18.918467,126.574661 
	C19.922417,127.341690 22.007864,126.693176 23.597837,126.693176 
	C23.705975,127.218887 23.814112,127.744598 23.922251,128.270309 
	C21.618238,128.822372 19.314226,129.374451 16.082300,130.148865 
	C16.082300,130.931961 16.082300,132.492630 16.048332,134.520996 
	C16.014366,134.988678 15.918415,135.105576 15.918415,135.105576 
z"/>
<path fill="#838383" opacity="1.000000" stroke="none" 
	d="
M205.906250,131.918411 
	C204.489807,132.256393 203.073380,132.594376 201.207291,133.039658 
	C201.579788,134.158127 201.941025,135.242783 202.370667,136.532852 
	C201.394638,136.615982 200.478455,136.694031 199.316422,136.793015 
	C199.316422,133.339005 199.316422,130.126663 199.316422,126.782135 
	C202.195724,126.782135 204.785400,126.782135 207.375076,126.782135 
	C207.392471,127.131714 207.409866,127.481293 207.427261,127.830864 
	C205.581497,128.002792 203.735748,128.174728 201.885773,128.350708 
	C201.249680,131.914963 201.249680,131.914963 205.545898,132.105255 
	C205.942734,131.947311 205.906250,131.918411 205.906250,131.918411 
z"/>
<path fill="#B0B0B0" opacity="1.000000" stroke="none" 
	d="
M87.697693,47.067261 
	C88.817909,48.500217 89.557449,49.891884 90.296997,51.283554 
	C89.085747,51.881542 87.847771,52.978237 86.671928,52.915245 
	C85.777069,52.867306 84.089973,50.891289 84.262695,50.560760 
	C84.964722,49.217323 86.248039,48.177650 87.697693,47.067261 
z"/>
<path fill="#DFDFDF" opacity="1.000000" stroke="none" 
	d="
M155.690613,135.572876 
	C159.068512,135.011963 162.272705,134.750015 165.476883,134.488068 
	C165.502625,134.949326 165.528366,135.410583 165.554092,135.871841 
	C162.208359,135.871841 158.862610,135.871841 155.690613,135.572876 
z"/>
<path fill="#EDEDED" opacity="1.000000" stroke="none" 
	d="
M16.064117,134.931732 
	C17.925934,134.989532 19.738003,135.104279 21.550070,135.219040 
	C21.462934,135.823380 21.375801,136.427719 21.288666,137.032074 
	C19.630302,136.595993 17.971937,136.159912 16.115993,135.414703 
	C15.918415,135.105576 16.014366,134.988678 16.064117,134.931732 
z"/>
<path fill="#DFDFDF" opacity="1.000000" stroke="none" 
	d="
M161.326065,133.861237 
	C161.246460,133.591934 161.344696,133.210052 161.536133,133.155548 
	C161.732712,133.099594 162.020370,133.363510 162.268158,133.487442 
	C162.027054,133.622437 161.785950,133.757431 161.326065,133.861237 
z"/>
<path fill="#838383" opacity="1.000000" stroke="none" 
	d="
M205.954102,131.966675 
	C206.207565,131.801376 206.439316,131.599182 206.699661,131.445343 
	C206.758698,131.410461 206.916916,131.543457 207.029480,131.599167 
	C206.795181,131.699448 206.560883,131.799728 206.116425,131.909210 
	C205.906250,131.918411 205.942734,131.947311 205.954102,131.966675 
z"/>
<path fill="#EFF0F1" opacity="1.000000" stroke="none" 
	d="
M214.815094,93.301208 
	C210.084244,94.189491 205.305237,94.673752 199.463943,95.265656 
	C200.919510,91.379791 201.699234,88.354149 203.184982,85.727936 
	C203.933578,84.404732 206.021790,82.992287 207.397675,83.091919 
	C209.009247,83.208603 210.980377,84.606842 211.936676,86.027367 
	C213.291733,88.040184 213.861526,90.581650 214.815094,93.301208 
z"/>
<path fill="#787878" opacity="1.000000" stroke="none" 
	d="
M230.011475,131.272003 
	C230.384598,131.095184 230.799179,131.207092 231.132141,131.637848 
	C230.717987,131.824722 230.385468,131.692734 230.011475,131.272003 
z"/>
<path fill="#DD1529" opacity="1.000000" stroke="none" 
	d="
M23.696333,90.932175 
	C28.205313,84.398102 30.282368,83.830017 38.380100,87.358391 
	C36.648598,87.448250 35.780811,87.715675 35.064110,87.494202 
	C30.594875,86.113106 28.190680,87.968582 26.901756,92.202187 
	C26.588060,93.232552 25.336657,93.977432 24.516415,94.853584 
	C24.170465,93.649017 23.824516,92.444458 23.696333,90.932175 
z"/>
<path fill="#FDFDFD" opacity="1.000000" stroke="none" 
	d="
M48.643028,133.093292 
	C49.291286,133.649475 49.551781,134.196487 49.812271,134.743500 
	C48.059742,134.743500 46.307213,134.743500 44.554684,134.743500 
	C44.508305,134.343689 44.461926,133.943878 44.415546,133.544052 
	C45.695454,133.390747 46.975361,133.237427 48.643028,133.093292 
z"/>
<path fill="#FDFDFD" opacity="1.000000" stroke="none" 
	d="
M189.780762,133.205322 
	C189.732773,133.051178 189.888000,132.699982 190.211792,132.476410 
	C190.248230,132.738785 190.116089,132.873520 189.780762,133.205322 
z"/>
</svg>