<?xml version="1.0" encoding="UTF-8"?>
<svg id="Logos" xmlns="http://www.w3.org/2000/svg" viewBox="0 0 978.59 573.7">
  <defs>
    <style>
      .cls-1 {
        fill: #004a80;
      }
    </style>
  </defs>
  <g id="Logo">
    <g>
      <path class="cls-1" d="M183.04,329.44v48.3h-7.94v-20.91h-20.7v20.91h-7.93v-48.3h7.93v19.8h20.7v-19.8h7.94Z"/>
      <path class="cls-1" d="M219.4,368.01h-20.56l-3.38,9.73h-8.62l17.53-48.3h9.52l17.46,48.3h-8.56l-3.38-9.73ZM216.78,360.56l-7.66-21.8-7.66,21.8h15.32ZM211.47,324.95h-7.18l5.52-9.31h8.97l-7.31,9.31Z"/>
      <path class="cls-1" d="M231.34,366.77l6.83-4c1.72,4.9,5.45,8.14,12.01,8.14s8.97-2.83,8.97-6.35c0-4.28-3.79-5.73-10.97-7.94-7.52-2.28-14.83-5.04-14.83-14.15s7.38-13.94,15.52-13.94,13.8,4.21,16.84,10.63l-6.69,3.86c-1.73-3.86-4.76-6.76-10.14-6.76-4.62,0-7.59,2.35-7.59,6s2.69,5.31,9.73,7.52c8,2.55,16.08,5.04,16.08,14.63,0,8.83-7.04,14.21-17.11,14.21-9.52,0-16.08-4.69-18.63-11.87Z"/>
      <path class="cls-1" d="M299.17,377.74l-19.04-22.98v22.98h-7.93v-48.3h7.93v21.67l18.35-21.67h9.45l-19.53,23.53,20.22,24.77h-9.45Z"/>
      <path class="cls-1" d="M305.86,353.59c0-14.01,11.11-25.05,25.05-25.05s25.05,11.04,25.05,25.05-11.04,25.05-25.05,25.05-25.05-11.04-25.05-25.05ZM348.02,353.59c0-9.94-7.45-17.32-17.11-17.32s-17.11,7.38-17.11,17.32,7.45,17.32,17.11,17.32,17.11-7.38,17.11-17.32ZM333.26,324.61l7.31-9.31h-8.97l-5.52,9.31h7.18Z"/>
      <path class="cls-1" d="M389.42,370.15v7.59h-27.6v-48.3h7.93v40.71h19.67Z"/>
      <path class="cls-1" d="M401.84,329.44v48.3h-7.93v-48.3h7.93Z"/>
      <path class="cls-1" d="M448.41,329.44v48.3h-6.21l-22.77-32.77v32.77h-7.93v-48.3h6.21l22.77,32.78v-32.78h7.93Z"/>
      <path class="cls-1" d="M493.61,329.44v48.3h-6.21l-22.77-32.77v32.77h-7.93v-48.3h6.21l22.77,32.78v-32.78h7.93Z"/>
      <path class="cls-1" d="M548.6,368.01h-20.56l-3.38,9.73h-8.62l17.53-48.3h9.52l17.46,48.3h-8.56l-3.38-9.73ZM545.98,360.56l-7.66-21.8-7.66,21.8h15.32ZM540.67,324.95h-7.18l5.52-9.31h8.97l-7.31,9.31Z"/>
      <path class="cls-1" d="M615.39,363.94c0,8-6.49,13.8-14.49,13.8h-20.7v-48.3h19.18c7.8,0,14.15,5.66,14.15,13.39,0,4.21-1.86,7.66-4.9,9.87,4.07,2.14,6.76,6.07,6.76,11.25ZM588.14,336.89v12.7h11.25c3.52,0,6.21-2.76,6.21-6.35s-2.69-6.35-6.21-6.35h-11.25ZM607.46,363.53c0-3.8-2.83-6.76-6.55-6.76h-12.77v13.52h12.77c3.73,0,6.55-2.97,6.55-6.76Z"/>
      <path class="cls-1" d="M628.85,329.44v48.3h-7.93v-48.3h7.93Z"/>
      <path class="cls-1" d="M645.06,337.03v13.52h19.67v7.59h-19.67v19.6h-7.93v-48.3h28.29v7.59h-20.36Z"/>
      <path class="cls-1" d="M688.81,360.14h-9.38v17.6h-7.93v-48.3h19.32c8.62,0,15.52,6.9,15.52,15.53,0,6.21-3.93,11.73-9.59,14.01l10.97,18.77h-8.69l-10.21-17.6ZM679.42,353.04h11.39c4.21,0,7.59-3.59,7.59-8.07s-3.38-8.07-7.59-8.07h-11.39v16.15Z"/>
      <path class="cls-1" d="M709.64,353.59c0-14.01,11.11-25.05,25.05-25.05s25.05,11.04,25.05,25.05-11.04,25.05-25.05,25.05-25.05-11.04-25.05-25.05ZM751.8,353.59c0-9.94-7.45-17.32-17.11-17.32s-17.11,7.38-17.11,17.32,7.45,17.32,17.11,17.32,17.11-7.38,17.11-17.32ZM724,320.95c0-2.28,1.86-4.14,4.14-4.14s4.14,1.86,4.14,4.14-1.86,4.14-4.14,4.14-4.14-1.86-4.14-4.14ZM737.11,320.95c0-2.28,1.86-4.14,4.14-4.14s4.14,1.86,4.14,4.14-1.86,4.14-4.14,4.14-4.14-1.86-4.14-4.14Z"/>
      <path class="cls-1" d="M761.26,366.77l6.83-4c1.72,4.9,5.45,8.14,12.01,8.14s8.97-2.83,8.97-6.35c0-4.28-3.79-5.73-10.97-7.94-7.52-2.28-14.83-5.04-14.83-14.15s7.38-13.94,15.52-13.94,13.8,4.21,16.84,10.63l-6.69,3.86c-1.73-3.86-4.76-6.76-10.14-6.76-4.62,0-7.59,2.35-7.59,6s2.69,5.31,9.73,7.52c8,2.55,16.08,5.04,16.08,14.63,0,8.83-7.04,14.21-17.11,14.21-9.52,0-16.08-4.69-18.63-11.87Z"/>
      <path class="cls-1" d="M832.12,337.03h-13.59v40.71h-7.93v-40.71h-13.66v-7.59h35.19v7.59Z"/>
    </g>
    <g>
      <path class="cls-1" d="M297.47,420.23c0,3.83-3.1,6.6-6.93,6.6h-9.9v-23.1h9.17c3.73,0,6.77,2.71,6.77,6.4,0,2.01-.89,3.66-2.34,4.72,1.95,1.02,3.23,2.9,3.23,5.38ZM284.43,407.3v6.07h5.38c1.68,0,2.97-1.32,2.97-3.04s-1.29-3.04-2.97-3.04h-5.38ZM293.68,420.04c0-1.82-1.35-3.23-3.14-3.23h-6.11v6.47h6.11c1.78,0,3.14-1.42,3.14-3.23Z"/>
      <path class="cls-1" d="M310.83,403.73v23.1h-3.79v-23.1h3.79Z"/>
      <path class="cls-1" d="M325.52,407.36v6.47h9.41v3.63h-9.41v9.37h-3.79v-23.1h13.53v3.63h-9.74Z"/>
      <path class="cls-1" d="M353.37,418.42h-4.49v8.42h-3.79v-23.1h9.24c4.13,0,7.43,3.3,7.43,7.43,0,2.97-1.88,5.61-4.59,6.7l5.25,8.98h-4.16l-4.88-8.42ZM348.88,415.02h5.45c2.01,0,3.63-1.72,3.63-3.86s-1.62-3.86-3.63-3.86h-5.45v7.72Z"/>
      <path class="cls-1" d="M370.27,415.28c0-6.7,5.31-11.98,11.98-11.98s11.98,5.28,11.98,11.98-5.28,11.98-11.98,11.98-11.98-5.28-11.98-11.98ZM390.43,415.28c0-4.75-3.56-8.28-8.19-8.28s-8.18,3.53-8.18,8.28,3.56,8.28,8.18,8.28,8.19-3.53,8.19-8.28ZM377.13,399.67c0-1.09.89-1.98,1.98-1.98s1.98.89,1.98,1.98-.89,1.98-1.98,1.98-1.98-.89-1.98-1.98ZM383.4,399.67c0-1.09.89-1.98,1.98-1.98s1.98.89,1.98,1.98-.89,1.98-1.98,1.98-1.98-.89-1.98-1.98Z"/>
      <path class="cls-1" d="M401.88,421.59l3.27-1.91c.83,2.34,2.61,3.89,5.74,3.89s4.29-1.35,4.29-3.04c0-2.05-1.81-2.74-5.25-3.8-3.6-1.09-7.1-2.41-7.1-6.77s3.53-6.67,7.43-6.67,6.6,2.01,8.05,5.08l-3.2,1.85c-.83-1.85-2.28-3.23-4.85-3.23-2.21,0-3.63,1.12-3.63,2.87s1.29,2.54,4.65,3.6c3.83,1.22,7.69,2.41,7.69,7,0,4.22-3.37,6.8-8.19,6.8-4.55,0-7.69-2.24-8.91-5.68Z"/>
      <path class="cls-1" d="M442.7,407.36h-6.5v19.47h-3.79v-19.47h-6.54v-3.63h16.83v3.63Z"/>
      <path class="cls-1" d="M466.06,419.18v-15.45h3.8v15.22c0,2.71,1.55,4.62,4.95,4.62s4.95-1.91,4.95-4.62v-15.22h3.8v15.45c0,4.98-3.7,8.09-8.75,8.09s-8.75-3.1-8.75-8.09Z"/>
      <path class="cls-1" d="M511.84,403.73v23.1h-2.97l-10.89-15.68v15.68h-3.79v-23.1h2.97l10.89,15.68v-15.68h3.8Z"/>
      <path class="cls-1" d="M526.52,403.73v23.1h-3.79v-23.1h3.79Z"/>
      <path class="cls-1" d="M535.26,403.73h4.16l6.14,18.52,6.17-18.52h4.12l-8.02,23.1h-4.55l-8.02-23.1Z"/>
      <path class="cls-1" d="M578.63,423.2v3.63h-14.03v-23.1h13.86v3.63h-10.07v6.01h9.24v3.6h-9.24v6.24h10.23Z"/>
      <path class="cls-1" d="M596.65,418.42h-4.49v8.42h-3.79v-23.1h9.24c4.13,0,7.43,3.3,7.43,7.43,0,2.97-1.88,5.61-4.59,6.7l5.25,8.98h-4.16l-4.88-8.42ZM592.16,415.02h5.45c2.01,0,3.63-1.72,3.63-3.86s-1.62-3.86-3.63-3.86h-5.45v7.72Z"/>
      <path class="cls-1" d="M613.31,421.59l3.27-1.91c.83,2.34,2.61,3.89,5.74,3.89s4.29-1.35,4.29-3.04c0-2.05-1.81-2.74-5.25-3.8-3.6-1.09-7.1-2.41-7.1-6.77s3.53-6.67,7.43-6.67,6.6,2.01,8.05,5.08l-3.2,1.85c-.83-1.85-2.28-3.23-4.85-3.23-2.21,0-3.63,1.12-3.63,2.87s1.29,2.54,4.65,3.6c3.83,1.22,7.69,2.41,7.69,7,0,4.22-3.37,6.8-8.19,6.8-4.55,0-7.69-2.24-8.91-5.68Z"/>
      <path class="cls-1" d="M643.57,403.73v23.1h-3.79v-23.1h3.79Z"/>
      <path class="cls-1" d="M669.48,407.36h-6.5v19.47h-3.79v-19.47h-6.54v-3.63h16.83v3.63Z"/>
      <path class="cls-1" d="M688.25,417.66v9.18h-3.8v-9.18l-8.05-13.93h4.32l5.64,10.23,5.61-10.23h4.32l-8.05,13.93Z"/>
    </g>
  </g>
  <g id="Logo-2" data-name="Logo">
    <g>
      <path class="cls-1" d="M443.23,269.73l.24.44s-13.04-35.64,21.52-76.36c34.55-40.72,78.94-22.2,78.94-22.2,5.04,4.23,8.34,10.38,12.03,17.98,4.91,10.72,7.28,22.8,6.4,35.39-2.82,40.21-37.68,70.52-77.89,67.71-7.89-.55-15.4-2.34-22.36-5.16-4.6-1.87-12.93-4.75-17.67-14.93l-1.21-2.88Z"/>
      <path class="cls-1" d="M418.24,201.78c9.75-39.1,49.35-62.9,88.46-53.15,9.28,2.31,18.51,6,27.97,13.52-32.98-15.46-96.15-3.96-117.86,65.14-.95,3.01-.81-8.23-.6-12.59.28-4.28.95-8.6,2.03-12.91"/>
    </g>
  </g>
</svg>