<svg version="1.1" id="Layer_1" xmlns="http://www.w3.org/2000/svg" xmlns:xlink="http://www.w3.org/1999/xlink" x="0px" y="0px"
	 width="100%" viewBox="0 0 440 401" enable-background="new 0 0 440 401" xml:space="preserve">
<path fill="#FFFFFF" opacity="1.000000" stroke="none" 
	d="
M441.000000,335.000000 
	C441.000000,339.689240 441.000000,344.378510 440.635590,349.531128 
	C437.967194,348.226929 435.663208,346.459412 433.018494,344.458252 
	C432.132233,344.232361 431.586639,344.240082 430.578918,344.150574 
	C419.429321,344.068817 408.741821,344.084381 397.699280,344.027588 
	C396.865448,343.997955 396.386749,344.040649 395.446655,344.044617 
	C363.290375,344.003906 331.595490,343.987030 299.900696,344.042572 
	C298.259430,344.045471 296.619293,344.667114 294.511475,344.984955 
	C262.673126,345.018433 231.301865,345.067627 199.468277,345.077698 
	C189.976913,345.067657 180.947891,345.096771 171.458679,345.066162 
	C157.740524,345.006500 144.482513,345.006500 131.267609,345.006500 
	C131.267609,307.709961 131.267609,270.987366 131.267609,234.002548 
	C133.334686,234.002548 135.139404,234.002548 136.944107,234.002548 
	C206.069366,234.002548 275.194672,234.026443 344.319824,233.950851 
	C349.130676,233.945587 353.856201,234.730820 358.664917,231.567749 
	C361.222229,229.885620 362.863708,228.639069 362.947205,225.955811 
	C363.395477,211.548767 363.897827,197.135101 363.823547,182.726593 
	C363.807190,179.558136 364.315643,174.806702 358.778503,173.606262 
	C348.043365,173.165222 337.528503,173.095856 326.549011,172.952423 
	C309.704346,172.932297 293.324341,172.986237 276.479553,173.019592 
	C265.035187,172.998993 254.055573,172.998993 243.075974,172.998993 
	C243.045624,172.541397 243.015274,172.083817 242.984940,171.626221 
	C243.803253,171.419098 244.613815,171.072861 245.441116,171.026749 
	C252.320999,170.643188 255.004028,167.851715 255.004059,160.989594 
	C255.004211,130.496857 255.004120,100.004105 255.004120,69.511360 
	C255.004120,67.726677 255.004135,65.941986 255.004135,64.551682 
	C257.575195,65.093658 259.733917,65.941139 261.894501,65.945808 
	C299.385406,66.026756 336.876526,66.004143 374.367615,66.004143 
	C376.144226,66.004143 377.920837,66.004150 379.995880,66.004150 
	C379.995880,68.286720 379.995880,70.086487 379.995880,71.886253 
	C379.995880,157.699158 379.995880,243.512070 379.995880,329.324982 
	C379.995880,330.324738 379.949249,331.327057 380.003662,332.323853 
	C380.411713,339.800720 382.723541,341.988495 390.307831,341.998932 
	C403.804596,342.017456 417.301392,342.006927 430.798187,342.002441 
	C435.028931,342.001038 438.828217,341.440216 439.115692,335.931671 
	C439.133545,335.589264 440.344269,335.309113 441.000000,335.000000 
z"/>
<path fill="#FFFFFF" opacity="1.000000" stroke="none" 
	d="
M441.000000,395.000000 
	C441.000000,397.330902 441.000000,399.661835 441.000000,401.987305 
	C294.333344,401.981873 147.666672,401.981873 1.000000,401.981873 
	C1.000000,398.966858 1.000000,395.970001 1.379475,392.623688 
	C1.410673,395.962921 2.964319,398.034943 6.770130,398.326508 
	C8.373519,398.449371 9.960354,398.971924 11.556274,398.979370 
	C23.718706,399.036133 35.881523,399.010681 48.044220,399.010406 
	C57.579121,399.010223 60.009270,396.567780 60.009434,386.949524 
	C60.011200,284.482971 60.034676,182.016373 59.926041,79.549942 
	C59.921490,75.258865 58.607235,70.978348 58.053970,66.673523 
	C57.870014,65.242210 57.971268,63.709274 58.278492,62.295910 
	C58.681240,60.443077 59.911259,58.667988 59.930859,56.850243 
	C60.076344,43.356216 60.378559,29.841177 59.694859,16.380310 
	C59.560188,13.728862 59.995865,8.016564 53.982712,7.708459 
	C53.281624,7.348013 52.701763,7.275087 51.651367,7.123764 
	C37.429028,7.037782 23.677111,7.003974 9.925605,7.063960 
	C8.579007,7.069834 7.234926,7.652653 5.523689,7.980801 
	C3.771802,9.995953 2.385901,11.997976 1.000000,14.000000 
	C1.000000,9.670831 1.000000,5.341661 1.000000,1.032119 
	C147.666672,1.032119 294.333344,1.032119 441.000000,1.032119 
	C441.000000,5.393407 441.000000,9.722575 440.612305,14.520837 
	C437.896362,13.339022 438.684631,8.388366 433.733093,9.105580 
	C432.968994,8.972183 432.532379,8.901397 432.085388,8.844594 
	C432.074982,8.858578 432.052277,8.884233 431.833618,8.509989 
	C431.119293,8.091505 430.623596,8.008573 430.127899,8.008512 
	C373.598022,8.001681 317.068146,7.995757 260.538300,8.036102 
	C259.355591,8.036946 258.173309,8.576632 256.723816,8.932595 
	C256.282654,9.058486 256.108490,9.116725 255.608353,9.109241 
	C254.843430,9.084130 254.404465,9.124742 253.603104,9.088127 
	C250.171249,8.672549 247.102982,8.053622 244.032120,8.040421 
	C220.379761,7.938756 196.726898,7.954524 172.848160,7.555767 
	C164.081726,7.171336 155.541321,7.165000 146.537521,7.083776 
	C135.054153,7.063274 124.034187,7.117661 112.550545,7.093381 
	C103.051338,7.010540 94.015282,6.953655 84.980667,7.042986 
	C82.974251,7.062825 80.972946,7.598172 78.718979,7.963422 
	C78.304817,8.317493 78.140968,8.604305 77.631302,9.029911 
	C75.855614,11.632790 73.190804,14.090651 73.178337,16.561880 
	C72.933128,65.210785 72.985107,113.861237 73.010826,162.511353 
	C73.013725,168.001282 78.001259,173.283066 83.274521,172.943436 
	C96.734291,172.076569 110.254272,174.737854 123.736115,171.222260 
	C130.556946,169.443619 132.002838,169.194260 132.003296,161.939713 
	C132.005234,130.783630 132.004135,99.627556 132.004135,68.471474 
	C132.004135,66.710358 132.004135,64.949234 132.004135,62.258049 
	C144.768463,63.206730 156.848770,64.353226 168.956207,64.921967 
	C177.870300,65.340698 186.819885,65.004143 195.995865,65.004143 
	C195.995865,92.841820 195.799103,120.141472 196.111893,147.435272 
	C196.209854,155.985107 193.160126,165.366150 202.039673,172.995865 
	C199.099884,172.995865 197.476379,172.995865 195.852875,172.995865 
	C176.192886,172.995865 156.532822,172.971588 136.873077,173.039658 
	C135.210342,173.045410 133.549728,173.669189 131.429306,173.953308 
	C124.637939,173.952927 118.305412,174.005112 111.506760,174.031082 
	C100.349106,174.062256 89.657570,174.119644 78.633636,174.108276 
	C77.513000,174.398422 76.724762,174.757324 75.555725,175.203186 
	C70.368019,176.649078 71.071793,180.798752 71.063156,184.180435 
	C70.961029,224.147980 70.873253,264.116394 71.039093,304.083496 
	C71.158989,332.980316 71.834969,361.875488 71.847023,390.771545 
	C71.849319,396.263000 75.115807,398.179993 78.825325,399.770294 
	C81.399780,400.873962 84.547867,400.955505 87.439926,400.956879 
	C200.182419,401.010620 312.924927,401.001404 425.667450,401.006104 
	C430.753510,401.006317 435.682220,400.736572 438.831055,395.770996 
	C439.154633,395.260712 440.258301,395.245117 441.000000,395.000000 
z"/>
<path fill="#030300" opacity="1.000000" stroke="none" 
	d="
M131.888138,174.005859 
	C133.549728,173.669189 135.210342,173.045410 136.873077,173.039658 
	C156.532822,172.971588 176.192886,172.995865 195.852875,172.995865 
	C197.476379,172.995865 199.099884,172.995865 202.039673,172.995865 
	C193.160126,165.366150 196.209854,155.985107 196.111893,147.435272 
	C195.799103,120.141472 195.995865,92.841820 195.995865,65.004143 
	C186.819885,65.004143 177.870300,65.340698 168.956207,64.921967 
	C156.848770,64.353226 144.768463,63.206730 132.004135,62.258049 
	C132.004135,64.949234 132.004135,66.710358 132.004135,68.471474 
	C132.004135,99.627556 132.005234,130.783630 132.003296,161.939713 
	C132.002838,169.194260 130.556946,169.443619 123.736115,171.222260 
	C110.254272,174.737854 96.734291,172.076569 83.274521,172.943436 
	C78.001259,173.283066 73.013725,168.001282 73.010826,162.511353 
	C72.985107,113.861237 72.933128,65.210785 73.178337,16.561880 
	C73.190804,14.090651 75.855614,11.632790 77.678963,9.503388 
	C78.072433,60.423141 78.072433,111.008209 78.072433,161.075256 
	C94.167366,161.075256 109.382446,161.075256 125.122910,161.075256 
	C125.122910,124.631195 125.122910,89.062073 125.122910,53.874878 
	C150.963318,53.874878 176.252975,53.874878 201.496613,53.874878 
	C201.496613,90.345383 201.496613,125.920609 201.496613,161.075653 
	C217.023972,161.075653 232.217422,161.075653 247.449066,161.075653 
	C247.285385,158.391403 247.071579,156.578262 247.079407,154.766068 
	C247.283432,107.461075 247.524124,60.156212 247.656921,12.851047 
	C247.660355,11.630579 246.525620,10.406919 245.461899,9.125072 
	C221.030136,9.027272 197.058151,8.989149 173.055573,8.697060 
	C173.041412,8.273350 173.057800,8.103607 173.074188,7.933864 
	C196.726898,7.954524 220.379761,7.938756 244.032120,8.040421 
	C247.102982,8.053622 250.171249,8.672549 253.618866,9.545769 
	C253.997009,24.852377 253.997009,39.624123 253.997009,55.107445 
	C298.162872,55.107445 341.530060,55.107445 384.980133,55.107445 
	C385.066467,56.980202 385.166748,58.137428 385.166382,59.294624 
	C385.156006,94.960480 385.125549,130.626328 385.119415,166.292175 
	C385.110229,219.624435 385.163269,272.956818 385.030914,326.288757 
	C385.020142,330.633881 386.166565,332.076569 390.647736,331.968933 
	C402.973724,331.672852 415.311462,331.864563 427.644531,331.863312 
	C429.567657,331.863129 431.490753,331.863312 433.831787,331.863312 
	C433.831787,329.102325 433.831787,327.128723 433.831787,325.155151 
	C433.831787,224.323853 433.828918,123.492546 433.841553,22.661249 
	C433.842102,18.163553 433.984344,13.665876 434.060608,9.168191 
	C438.684631,8.388366 437.896362,13.339022 440.612305,14.994965 
	C441.000000,121.354225 441.000000,227.708450 441.000000,334.531342 
	C440.344269,335.309113 439.133545,335.589264 439.115692,335.931671 
	C438.828217,341.440216 435.028931,342.001038 430.798187,342.002441 
	C417.301392,342.006927 403.804596,342.017456 390.307831,341.998932 
	C382.723541,341.988495 380.411713,339.800720 380.003662,332.323853 
	C379.949249,331.327057 379.995880,330.324738 379.995880,329.324982 
	C379.995880,243.512070 379.995880,157.699158 379.995880,71.886253 
	C379.995880,70.086487 379.995880,68.286720 379.995880,66.004150 
	C377.920837,66.004150 376.144226,66.004143 374.367615,66.004143 
	C336.876526,66.004143 299.385406,66.026756 261.894501,65.945808 
	C259.733917,65.941139 257.575195,65.093658 255.004135,64.551682 
	C255.004135,65.941986 255.004120,67.726677 255.004120,69.511360 
	C255.004120,100.004105 255.004211,130.496857 255.004059,160.989594 
	C255.004028,167.851715 252.320999,170.643188 245.441116,171.026749 
	C244.613815,171.072861 243.803253,171.419098 242.984940,171.626221 
	C243.015274,172.083817 243.045624,172.541397 243.075974,172.998993 
	C254.055573,172.998993 265.035187,172.998993 276.347137,173.441315 
	C275.027618,173.986603 273.375793,174.178604 271.723877,174.179611 
	C226.772263,174.207214 181.820633,174.217667 136.869019,174.217270 
	C135.208725,174.217270 133.548431,174.079453 131.888138,174.005859 
z"/>
<path fill="#010101" opacity="1.000000" stroke="none" 
	d="
M441.000000,394.531342 
	C440.258301,395.245117 439.154633,395.260712 438.831055,395.770996 
	C435.682220,400.736572 430.753510,401.006317 425.667450,401.006104 
	C312.924927,401.001404 200.182419,401.010620 87.439926,400.956879 
	C84.547867,400.955505 81.399780,400.873962 78.825325,399.770294 
	C75.115807,398.179993 71.849319,396.263000 71.847023,390.771545 
	C71.834969,361.875488 71.158989,332.980316 71.039093,304.083496 
	C70.873253,264.116394 70.961029,224.147980 71.063156,184.180435 
	C71.071793,180.798752 70.368019,176.649078 75.656441,175.605011 
	C76.431137,179.221527 76.963219,182.521774 76.982246,185.824966 
	C77.365059,252.267044 77.686867,318.709442 78.037560,385.151733 
	C78.045151,386.590424 78.247551,388.028076 78.370537,389.614105 
	C196.923920,389.614105 315.102875,389.614105 433.796692,389.614105 
	C433.796692,383.225403 433.852112,377.103027 433.783417,370.981995 
	C433.684845,362.200623 433.495789,353.420288 433.332703,344.654144 
	C433.320099,344.668793 433.359192,344.691895 433.359192,344.691895 
	C435.663208,346.459412 437.967194,348.226929 440.635590,349.997253 
	C441.000000,364.687561 441.000000,379.375122 441.000000,394.531342 
z"/>
<path fill="#050505" opacity="1.000000" stroke="none" 
	d="
M54.103943,7.995980 
	C59.995865,8.016564 59.560188,13.728862 59.694859,16.380310 
	C60.378559,29.841177 60.076344,43.356216 59.930859,56.850243 
	C59.911259,58.667988 58.681240,60.443077 58.278492,62.295910 
	C57.971268,63.709274 57.870014,65.242210 58.053970,66.673523 
	C58.607235,70.978348 59.921490,75.258865 59.926041,79.549942 
	C60.034676,182.016373 60.011200,284.482971 60.009434,386.949524 
	C60.009270,396.567780 57.579121,399.010223 48.044220,399.010406 
	C35.881523,399.010681 23.718706,399.036133 11.556274,398.979370 
	C9.960354,398.971924 8.373519,398.449371 6.770130,398.326508 
	C2.964319,398.034943 1.410673,395.962921 1.379475,392.137146 
	C1.000000,266.312439 1.000000,140.624878 1.000000,14.468657 
	C2.385901,11.997976 3.771802,9.995953 5.589679,8.446774 
	C6.127246,22.877857 6.232838,36.856094 6.224698,51.248013 
	C5.530049,55.564571 7.876697,55.973011 10.940373,55.954529 
	C23.387218,55.879436 35.838409,55.749851 48.280113,56.013081 
	C52.708683,56.106773 53.979702,54.634399 53.933613,50.308044 
	C53.783382,36.206226 54.017632,22.100315 54.103943,7.995980 
M52.825073,88.500069 
	C52.825073,80.402008 52.825073,72.303940 52.825073,63.833344 
	C37.661339,63.833344 21.986717,63.833344 6.258077,63.833344 
	C6.171804,64.956589 6.076952,65.613480 6.077182,66.270340 
	C6.113710,170.721786 6.157090,275.173218 6.200218,379.624664 
	C6.200768,380.957397 6.317891,382.302246 6.179833,383.620453 
	C5.831256,386.948730 7.318786,387.928009 10.534100,387.861542 
	C19.193165,387.682434 27.858208,387.791321 36.520878,387.787933 
	C41.803471,387.785889 47.086063,387.787567 52.824673,387.787567 
	C52.824673,287.978149 52.824673,188.739105 52.825073,88.500069 
z"/>
<path fill="#010101" opacity="1.000000" stroke="none" 
	d="
M358.998810,173.977921 
	C364.315643,174.806702 363.807190,179.558136 363.823547,182.726593 
	C363.897827,197.135101 363.395477,211.548767 362.947205,225.955811 
	C362.863708,228.639069 361.222229,229.885620 358.664917,231.567749 
	C353.856201,234.730820 349.130676,233.945587 344.319824,233.950851 
	C275.194672,234.026443 206.069366,234.002548 136.944107,234.002548 
	C135.139404,234.002548 133.334686,234.002548 131.267609,234.002548 
	C131.267609,270.987366 131.267609,307.709961 131.267609,345.006500 
	C144.482513,345.006500 157.740524,345.006500 171.481964,345.269806 
	C171.965393,345.533112 171.899872,345.937714 171.438156,345.963959 
	C156.938049,346.149414 142.899643,346.308624 128.480331,346.446411 
	C127.100525,346.580902 126.101639,346.736786 125.018402,346.405396 
	C124.650116,340.440765 124.144966,334.964539 124.118416,329.485992 
	C123.955330,295.834808 123.896553,262.183044 123.820633,228.531464 
	C123.816689,226.782990 123.973717,225.034134 124.082275,222.721527 
	C201.679764,222.721527 278.708893,222.721527 355.864349,222.721527 
	C356.245361,215.667221 356.560364,209.198273 356.952026,202.733994 
	C357.513916,193.460114 358.131683,184.189651 358.832153,174.693893 
	C358.938721,174.470062 358.998810,173.977921 358.998810,173.977921 
z"/>
<path fill="#A2A2A2" opacity="1.000000" stroke="none" 
	d="
M131.429306,173.953308 
	C133.548431,174.079453 135.208725,174.217270 136.869019,174.217270 
	C181.820633,174.217667 226.772263,174.207214 271.723877,174.179611 
	C273.375793,174.178604 275.027618,173.986603 276.811890,173.461899 
	C293.324341,172.986237 309.704346,172.932297 326.592010,173.361008 
	C328.601013,174.227631 330.098236,174.923859 331.604401,174.943802 
	C340.037231,175.055527 348.472168,175.003952 356.808716,175.276794 
	C356.152069,176.030869 355.593170,176.516281 354.562805,176.997070 
	C275.510590,177.010925 196.929749,177.035172 118.348930,177.016571 
	C116.251152,177.016083 114.153481,176.551056 112.052032,175.927673 
	C112.023155,175.054230 111.998016,174.555756 111.972878,174.057297 
	C118.305412,174.005112 124.637939,173.952927 131.429306,173.953308 
z"/>
<path fill="#909090" opacity="1.000000" stroke="none" 
	d="
M128.861252,346.467834 
	C142.899643,346.308624 156.938049,346.149414 171.913086,345.994324 
	C176.993179,346.004425 181.140686,346.128754 185.278961,345.985687 
	C190.167023,345.816711 195.047073,345.416687 199.930603,345.116821 
	C231.301865,345.067627 262.673126,345.018433 294.981262,345.001770 
	C327.729675,345.018707 359.541168,345.015533 391.352539,344.949219 
	C392.871643,344.946075 394.389557,344.384766 395.908020,344.083374 
	C396.386749,344.040649 396.865448,343.997955 397.996277,344.312286 
	C409.474304,344.718262 420.300171,344.767242 431.502197,344.990662 
	C432.123474,345.292725 432.368652,345.420349 432.592224,345.524384 
	C432.570679,345.500824 432.624817,345.466034 432.442139,345.743835 
	C431.964569,346.347656 431.669647,346.673676 430.873474,346.985504 
	C375.898132,347.288544 321.424377,347.681580 266.949921,347.899414 
	C222.283813,348.078033 177.616898,348.062775 132.950363,348.041504 
	C131.587082,348.040863 130.224274,347.015442 128.861252,346.467834 
z"/>
<path fill="#000000" opacity="1.000000" stroke="none" 
	d="
M395.446655,344.044617 
	C394.389557,344.384766 392.871643,344.946075 391.352539,344.949219 
	C359.541168,345.015533 327.729675,345.018707 295.448395,345.017487 
	C296.619293,344.667114 298.259430,344.045471 299.900696,344.042572 
	C331.595490,343.987030 363.290375,344.003906 395.446655,344.044617 
z"/>
<path fill="#797979" opacity="1.000000" stroke="none" 
	d="
M356.906403,175.008133 
	C348.472168,175.003952 340.037231,175.055527 331.604401,174.943802 
	C330.098236,174.923859 328.601013,174.227631 327.056671,173.435059 
	C337.528503,173.095856 348.043365,173.165222 358.778503,173.606262 
	C358.998810,173.977921 358.938721,174.470062 358.529510,174.707611 
	C357.715668,174.966141 357.311035,174.987137 356.906403,175.008133 
z"/>
<path fill="#797979" opacity="1.000000" stroke="none" 
	d="
M431.126068,344.816193 
	C420.300171,344.767242 409.474304,344.718262 398.351379,344.384644 
	C408.741821,344.084381 419.429321,344.068817 430.597900,344.292969 
	C431.078979,344.532654 431.126068,344.816193 431.126068,344.816193 
z"/>
<path fill="#6D6D6D" opacity="1.000000" stroke="none" 
	d="
M199.468277,345.077698 
	C195.047073,345.416687 190.167023,345.816711 185.278961,345.985687 
	C181.140686,346.128754 176.993179,346.004425 172.374817,345.968079 
	C171.899872,345.937714 171.965393,345.533112 171.942123,345.329468 
	C180.947891,345.096771 189.976913,345.067657 199.468277,345.077698 
z"/>
<path fill="#616161" opacity="1.000000" stroke="none" 
	d="
M431.502197,344.990662 
	C431.126068,344.816193 431.078979,344.532654 431.059998,344.390259 
	C431.586639,344.240082 432.132233,344.232361 433.018494,344.458252 
	C433.359192,344.691895 433.320099,344.668793 433.136353,344.887268 
	C432.825989,345.264923 432.699341,345.424103 432.565613,345.556030 
	C432.558563,345.528748 432.613800,345.547943 432.613800,345.547943 
	C432.368652,345.420349 432.123474,345.292725 431.502197,344.990662 
z"/>
<path fill="#745A05" opacity="1.000000" stroke="none" 
	d="
M433.733093,9.105580 
	C433.984344,13.665876 433.842102,18.163553 433.841553,22.661249 
	C433.828918,123.492546 433.831787,224.323853 433.831787,325.155151 
	C433.831787,327.128723 433.831787,329.102325 433.831787,331.863312 
	C431.490753,331.863312 429.567657,331.863129 427.644531,331.863312 
	C415.311462,331.864563 402.973724,331.672852 390.647736,331.968933 
	C386.166565,332.076569 385.020142,330.633881 385.030914,326.288757 
	C385.163269,272.956818 385.110229,219.624435 385.119415,166.292175 
	C385.125549,130.626328 385.156006,94.960480 385.166382,59.294624 
	C385.166748,58.137428 385.066467,56.980202 384.980133,55.107445 
	C341.530060,55.107445 298.162872,55.107445 253.997009,55.107445 
	C253.997009,39.624123 253.997009,24.852377 253.981262,9.622993 
	C254.404465,9.124742 254.843430,9.084130 255.616425,9.420936 
	C256.462585,10.552389 256.974670,11.306427 257.617615,12.352839 
	C257.876373,13.050847 258.004272,13.456481 257.916168,14.241014 
	C257.456268,16.055710 257.007416,17.490648 257.001404,18.927437 
	C256.958099,29.286394 257.004517,39.645725 257.092773,50.406372 
	C258.997833,51.201046 260.832001,51.934525 262.667450,51.937588 
	C304.449615,52.007298 346.231964,51.997173 387.998657,52.470318 
	C387.975281,141.676407 387.950256,230.414169 388.042969,319.151825 
	C388.045746,321.818207 389.280762,324.483246 390.258911,327.419769 
	C403.112488,327.804962 415.648895,327.984406 428.183563,327.902252 
	C429.122223,327.896088 430.048615,326.019836 430.999329,324.543762 
	C431.023071,221.661179 431.028656,119.247749 431.027649,16.834312 
	C431.027649,15.503956 430.943176,14.173599 430.930939,12.644000 
	C430.963745,12.444757 431.106812,12.067090 431.375000,11.836021 
	C431.794037,10.680174 431.944916,9.755394 432.095764,8.830612 
	C432.532379,8.901397 432.968994,8.972183 433.733093,9.105580 
z"/>
<path fill="#826405" opacity="1.000000" stroke="none" 
	d="
M245.921661,9.184747 
	C246.525620,10.406919 247.660355,11.630579 247.656921,12.851047 
	C247.524124,60.156212 247.283432,107.461075 247.079407,154.766068 
	C247.071579,156.578262 247.285385,158.391403 247.449066,161.075653 
	C232.217422,161.075653 217.023972,161.075653 201.496613,161.075653 
	C201.496613,125.920609 201.496613,90.345383 201.496613,53.874878 
	C176.252975,53.874878 150.963318,53.874878 125.122910,53.874878 
	C125.122910,89.062073 125.122910,124.631195 125.122910,161.075256 
	C109.382446,161.075256 94.167366,161.075256 78.072433,161.075256 
	C78.072433,111.008209 78.072433,60.423141 78.024780,9.364594 
	C78.140968,8.604305 78.304817,8.317493 78.749359,8.272350 
	C79.350807,9.010085 79.671570,9.506152 80.138481,10.233906 
	C80.759560,10.707723 81.234505,10.949852 81.790398,11.461061 
	C81.970222,12.090158 82.069092,12.450178 82.099823,13.286496 
	C82.006477,60.469475 81.972412,107.176155 81.999229,153.882797 
	C82.000031,155.270401 82.640320,156.657623 83.286430,158.330322 
	C90.069481,158.404205 96.548553,158.192795 103.493362,157.987015 
	C107.772316,157.988785 111.602180,158.194672 115.391830,157.893967 
	C117.333389,157.739914 119.203056,156.679916 121.384689,155.720200 
	C121.786987,153.930222 122.016273,152.449478 122.017014,150.968582 
	C122.033897,117.318207 122.025780,83.667824 122.013535,50.015038 
	C122.004730,50.012642 122.027214,50.028290 122.493164,50.021782 
	C132.983994,49.988041 143.008881,49.960808 153.496002,49.947983 
	C166.909271,50.285507 179.858826,50.711246 192.811813,50.900578 
	C204.000092,51.064110 204.001831,50.945290 204.001831,62.201096 
	C204.001831,92.505226 203.989441,122.809380 204.028519,153.113464 
	C204.031250,155.231689 203.046280,158.172379 207.279327,158.337891 
	C211.373001,158.744339 215.164886,159.054932 218.944199,158.942520 
	C223.311478,158.812622 227.667694,158.310074 232.479538,157.975098 
	C235.936798,157.971191 238.943222,157.961563 242.255585,157.954926 
	C243.045090,157.645142 243.528656,157.332352 244.020233,156.549713 
	C244.029388,111.266457 244.046829,66.453033 243.983826,21.639713 
	C243.980667,19.382944 243.282150,17.127155 243.054016,14.589958 
	C243.761246,13.217512 244.321869,12.126016 245.137939,10.902575 
	C245.569473,10.242002 245.745575,9.713373 245.921661,9.184747 
z"/>
<path fill="#616161" opacity="1.000000" stroke="none" 
	d="
M431.374725,346.999695 
	C431.669647,346.673676 431.964569,346.347656 432.434723,345.771790 
	C432.609955,345.521973 432.572693,345.583282 432.572693,345.583282 
	C432.699341,345.424103 432.825989,345.264923 433.148987,344.872620 
	C433.495789,353.420288 433.684845,362.200623 433.783417,370.981995 
	C433.852112,377.103027 433.796692,383.225403 433.796692,389.614105 
	C315.102875,389.614105 196.923920,389.614105 78.370537,389.614105 
	C78.247551,388.028076 78.045151,386.590424 78.037560,385.151733 
	C77.686867,318.709442 77.365059,252.267044 76.982246,185.824966 
	C76.963219,182.521774 76.431137,179.221527 76.037247,175.518066 
	C76.724762,174.757324 77.513000,174.398422 78.628471,174.388672 
	C78.946144,175.111588 78.936577,175.485336 78.928238,176.215103 
	C78.976295,177.039520 79.023117,177.507919 79.049255,178.446014 
	C79.652924,191.313721 80.801239,203.713257 80.765968,216.109406 
	C80.724068,230.841751 79.131905,245.571777 79.147797,260.301788 
	C79.192642,301.860107 79.716698,343.417908 80.056717,385.271454 
	C80.713051,385.741577 81.364571,385.916138 82.483612,386.084259 
	C196.073624,386.072601 309.196106,386.067322 422.318604,386.061859 
	C423.651428,386.061798 424.992157,385.966095 426.315399,386.078217 
	C429.105469,386.314667 430.143707,385.149414 430.106720,382.329620 
	C429.988800,373.334686 430.131775,364.336060 429.975525,355.342285 
	C429.956055,354.220428 428.745087,353.119263 428.225464,351.712463 
	C429.368073,349.944153 430.371399,348.471924 431.374725,346.999695 
z"/>
<path fill="#927107" opacity="1.000000" stroke="none" 
	d="
M6.338430,50.834332 
	C6.232838,36.856094 6.127246,22.877857 5.955666,8.433646 
	C7.234926,7.652653 8.579007,7.069834 9.925605,7.063960 
	C23.677111,7.003974 37.429028,7.037782 51.618271,7.492194 
	C51.928104,8.412846 51.800495,8.886670 51.235786,9.309263 
	C36.948982,9.258483 23.099272,9.258933 9.040106,9.232420 
	C8.722900,9.292549 8.615149,9.379642 8.507400,9.466736 
	C8.703160,9.631989 8.898921,9.797240 9.130259,10.280008 
	C9.792108,11.693741 10.418382,12.789958 10.867777,14.274131 
	C10.476536,26.162228 10.232079,37.662106 10.131421,49.163242 
	C10.126055,49.776428 11.333236,50.400230 12.277843,51.309341 
	C23.937744,51.724922 35.295746,51.889378 46.653767,51.890213 
	C47.436508,51.890274 48.219341,50.669258 49.005760,49.546440 
	C49.011982,37.062057 49.014584,25.047333 49.124557,12.768887 
	C49.862000,12.126819 50.492073,11.748472 51.345318,11.832693 
	C51.568489,26.035316 51.568489,39.775372 51.568489,53.999699 
	C38.724419,53.999699 26.269932,53.864006 13.822112,54.092167 
	C10.585472,54.151489 8.180372,53.430714 6.338430,50.834332 
z"/>
<path fill="#AB850B" opacity="1.000000" stroke="none" 
	d="
M257.486786,12.060469 
	C256.974670,11.306427 256.462585,10.552389 255.942383,9.486658 
	C256.108490,9.116725 256.282654,9.058486 257.189575,8.991251 
	C274.886780,8.990541 291.851257,9.016197 308.815704,9.003669 
	C349.894562,8.973330 390.973419,8.925196 432.052277,8.884233 
	C432.052277,8.884233 432.074982,8.858578 432.085388,8.844597 
	C431.944916,9.755394 431.794037,10.680174 431.073608,11.528627 
	C429.197357,11.300943 427.890686,11.017746 426.583893,11.017212 
	C371.964172,10.994904 317.344452,10.988043 262.724762,11.042390 
	C260.978455,11.044127 259.232758,11.706220 257.486786,12.060469 
z"/>
<path fill="#574406" opacity="1.000000" stroke="none" 
	d="
M6.224698,51.248013 
	C8.180372,53.430714 10.585472,54.151489 13.822112,54.092167 
	C26.269932,53.864006 38.724419,53.999699 51.568489,53.999699 
	C51.568489,39.775372 51.568489,26.035316 51.464180,11.598250 
	C51.464211,10.387657 51.568546,9.874076 51.672882,9.360495 
	C51.800495,8.886670 51.928104,8.412846 52.088806,7.570591 
	C52.701763,7.275087 53.281624,7.348013 53.982712,7.708459 
	C54.017632,22.100315 53.783382,36.206226 53.933613,50.308044 
	C53.979702,54.634399 52.708683,56.106773 48.280113,56.013081 
	C35.838409,55.749851 23.387218,55.879436 10.940373,55.954529 
	C7.876697,55.973011 5.530049,55.564571 6.224698,51.248013 
z"/>
<path fill="#000000" opacity="1.000000" stroke="none" 
	d="
M431.833618,8.509989 
	C390.973419,8.925196 349.894562,8.973330 308.815704,9.003669 
	C291.851257,9.016197 274.886780,8.990541 257.456573,8.923597 
	C258.173309,8.576632 259.355591,8.036946 260.538300,8.036102 
	C317.068146,7.995757 373.598022,8.001681 430.127899,8.008512 
	C430.623596,8.008573 431.119293,8.091505 431.833618,8.509989 
z"/>
<path fill="#947508" opacity="1.000000" stroke="none" 
	d="
M79.992340,10.002219 
	C79.671570,9.506152 79.350807,9.010085 78.999664,8.205089 
	C80.972946,7.598172 82.974251,7.062825 84.980667,7.042986 
	C94.015282,6.953655 103.051338,7.010540 112.551437,7.400870 
	C113.011543,8.196945 113.007080,8.606863 112.537750,9.087252 
	C102.119591,9.156943 92.166298,9.156165 81.889206,9.106142 
	C81.041054,9.372005 80.516701,9.687112 79.992340,10.002219 
z"/>
<path fill="#826405" opacity="1.000000" stroke="none" 
	d="
M113.002625,9.016783 
	C113.007080,8.606863 113.011543,8.196945 113.015106,7.479538 
	C124.034187,7.117661 135.054153,7.063274 146.537628,7.411980 
	C147.009003,8.252581 147.016891,8.690087 146.554565,9.158028 
	C135.057114,9.131234 124.029869,9.074009 113.002625,9.016783 
z"/>
<path fill="#797979" opacity="1.000000" stroke="none" 
	d="
M78.927017,175.859100 
	C78.936577,175.485336 78.946144,175.111588 78.960861,174.457428 
	C89.657570,174.119644 100.349106,174.062256 111.506760,174.031082 
	C111.998016,174.555756 112.023155,175.054230 111.577721,175.885742 
	C101.156555,176.247971 91.205963,176.277145 80.875061,176.186707 
	C79.972176,175.997757 79.449593,175.928436 78.927017,175.859100 
z"/>
<path fill="#947508" opacity="1.000000" stroke="none" 
	d="
M147.024765,9.127595 
	C147.016891,8.690087 147.009003,8.252581 147.001007,7.486870 
	C155.541321,7.165000 164.081726,7.171336 172.848160,7.555767 
	C173.057800,8.103607 173.041412,8.273350 172.581299,8.721886 
	C163.989838,9.110136 155.842072,9.219593 147.525757,9.284876 
	C147.357208,9.240701 147.024765,9.127595 147.024765,9.127595 
z"/>
<path fill="#BC9109" opacity="1.000000" stroke="none" 
	d="
M147.694305,9.329049 
	C155.842072,9.219593 163.989838,9.110136 172.611877,8.975852 
	C197.058151,8.989149 221.030136,9.027272 245.461914,9.125071 
	C245.745575,9.713373 245.569473,10.242002 244.680298,10.898116 
	C213.821594,10.987447 183.675842,10.978438 153.530655,10.843598 
	C151.582993,10.834886 149.639648,9.856410 147.694305,9.329049 
z"/>
<path fill="#6D6D6D" opacity="1.000000" stroke="none" 
	d="
M52.824875,89.000061 
	C52.824673,188.739105 52.824673,287.978149 52.824673,387.787567 
	C47.086063,387.787567 41.803471,387.785889 36.520878,387.787933 
	C27.858208,387.791321 19.193165,387.682434 10.534100,387.861542 
	C7.318786,387.928009 5.831256,386.948730 6.179833,383.620453 
	C6.317891,382.302246 6.200768,380.957397 6.200218,379.624664 
	C6.157090,275.173218 6.113710,170.721786 6.077182,66.270340 
	C6.076952,65.613480 6.171804,64.956589 6.258077,63.833344 
	C21.986717,63.833344 37.661339,63.833344 52.825073,63.833344 
	C52.825073,72.303940 52.825073,80.402008 52.824875,89.000061 
M10.564581,70.449837 
	C10.369446,72.574959 10.004199,74.700027 10.003603,76.825203 
	C9.975561,176.811859 9.979168,276.798523 9.979271,376.785187 
	C9.979272,377.951691 10.072278,379.126831 9.963377,380.282990 
	C9.697483,383.106110 10.926584,384.127594 13.724263,384.045319 
	C18.719250,383.898407 23.721704,384.005707 28.721037,384.005981 
	C35.334522,384.006378 41.948009,384.006104 48.045921,384.006104 
	C48.045921,379.341156 48.045921,375.397858 48.045921,371.454559 
	C48.045921,316.295258 48.045925,261.135956 48.045921,205.976654 
	C48.045918,163.149033 48.068356,120.321358 47.968872,77.493965 
	C47.964622,75.664719 46.832626,73.838097 46.508575,71.400551 
	C47.766209,69.914619 49.023842,68.428688 50.897930,66.214401 
	C36.221115,66.214401 22.877817,66.214401 8.792259,66.214401 
	C9.893773,67.877693 10.585953,68.922890 10.564581,70.449837 
z"/>
<path fill="#CECECE" opacity="1.000000" stroke="none" 
	d="
M430.873474,346.985504 
	C430.371399,348.471924 429.368073,349.944153 427.913757,351.701477 
	C426.979370,352.332703 426.496033,352.678864 425.673920,353.160919 
	C422.377838,354.163574 419.426208,355.765656 416.462311,355.788666 
	C355.051880,356.266052 293.640289,356.629333 232.228378,356.872986 
	C195.425812,357.019012 158.622299,356.922546 121.819214,356.934967 
	C120.066925,356.935547 118.314629,356.935028 116.245712,356.935028 
	C116.669106,355.258179 116.905960,354.320160 117.450836,353.254333 
	C119.151428,351.651611 120.543983,350.176636 122.239594,348.585510 
	C123.396019,347.943848 124.249390,347.418274 125.102753,346.892700 
	C126.101639,346.736786 127.100525,346.580902 128.480331,346.446411 
	C130.224274,347.015442 131.587082,348.040863 132.950363,348.041504 
	C177.616898,348.062775 222.283813,348.078033 266.949921,347.899414 
	C321.424377,347.681580 375.898132,347.288544 430.873474,346.985504 
z"/>
<path fill="#5D5D5D" opacity="1.000000" stroke="none" 
	d="
M125.018402,346.405396 
	C124.249390,347.418274 123.396019,347.943848 122.265030,348.074036 
	C121.971031,341.795624 121.954651,335.912537 121.969772,329.558807 
	C121.984390,295.623962 121.980522,262.159729 121.909752,228.695663 
	C121.906448,227.130646 121.306564,225.566910 120.992561,223.627319 
	C121.000656,222.501373 121.000717,221.750687 121.224236,220.898590 
	C121.726364,220.599182 121.910866,220.335342 122.469795,220.006622 
	C196.315613,220.005676 269.692841,220.003723 343.070068,220.001877 
	C354.029907,220.001587 354.029907,220.001831 354.289673,208.706680 
	C354.710327,201.269104 354.831787,194.123154 354.965698,186.524261 
	C354.885986,183.615952 354.793854,181.160599 354.749298,178.419800 
	C354.876007,177.756775 354.955109,177.379227 355.034241,177.001678 
	C355.593170,176.516281 356.152069,176.030869 356.808716,175.276794 
	C357.311035,174.987137 357.715668,174.966141 358.422943,174.931427 
	C358.131683,184.189651 357.513916,193.460114 356.952026,202.733994 
	C356.560364,209.198273 356.245361,215.667221 355.864349,222.721527 
	C278.708893,222.721527 201.679764,222.721527 124.082275,222.721527 
	C123.973717,225.034134 123.816689,226.782990 123.820633,228.531464 
	C123.896553,262.183044 123.955330,295.834808 124.118416,329.485992 
	C124.144966,334.964539 124.650116,340.440765 125.018402,346.405396 
z"/>
<path fill="#D7D7D7" opacity="1.000000" stroke="none" 
	d="
M354.562805,176.997070 
	C354.955109,177.379227 354.876007,177.756775 354.437012,178.517227 
	C352.429840,179.987686 350.782532,181.075241 348.656982,182.098114 
	C328.366211,182.020554 308.553436,181.930740 288.741302,182.008698 
	C220.849899,182.275864 152.958740,182.601868 84.832733,182.863785 
	C84.597969,182.822144 84.125427,182.758118 83.971008,182.497253 
	C82.897507,181.465744 81.978416,180.695099 81.049271,179.966370 
	C81.039215,180.008270 81.083580,179.925629 81.042511,179.699036 
	C81.001450,179.472458 80.893913,179.024612 80.942535,178.682556 
	C81.079224,177.662460 81.167305,176.984390 81.255379,176.306335 
	C91.205963,176.277145 101.156555,176.247971 111.581451,176.260712 
	C114.153481,176.551056 116.251152,177.016083 118.348930,177.016571 
	C196.929749,177.035172 275.510590,177.010925 354.562805,176.997070 
z"/>
<path fill="#010101" opacity="1.000000" stroke="none" 
	d="
M432.565613,345.556030 
	C432.572693,345.583282 432.609955,345.521973 432.617371,345.494019 
	C432.624817,345.466034 432.570679,345.500824 432.592224,345.524384 
	C432.613800,345.547943 432.558563,345.528748 432.565613,345.556030 
z"/>
<path fill="#F6CF39" opacity="1.000000" stroke="none" 
	d="
M257.617615,12.352842 
	C259.232758,11.706220 260.978455,11.044127 262.724762,11.042390 
	C317.344452,10.988043 371.964172,10.994904 426.583893,11.017212 
	C427.890686,11.017746 429.197357,11.300943 430.805450,11.759696 
	C431.106812,12.067090 430.963745,12.444757 430.651428,12.803231 
	C429.199310,14.430563 428.059570,15.699421 426.690613,16.961159 
	C426.461426,16.954041 426.003967,17.001389 425.534912,16.996082 
	C371.025726,17.017544 316.985565,17.044312 262.708191,17.045540 
	C262.470947,17.019999 261.993835,17.008289 261.819763,16.748753 
	C260.474548,15.613517 259.303375,14.737815 258.132202,13.862114 
	C258.004272,13.456481 257.876373,13.050847 257.617615,12.352842 
z"/>
<path fill="#B28802" opacity="1.000000" stroke="none" 
	d="
M389.941254,327.148926 
	C389.280762,324.483246 388.045746,321.818207 388.042969,319.151825 
	C387.950256,230.414169 387.975281,141.676407 388.272400,52.344292 
	C389.373688,51.165421 390.185608,50.580906 390.998413,50.465462 
	C390.999481,139.175522 390.990601,227.416534 391.042084,315.657501 
	C391.043732,318.440155 391.667480,321.222443 391.869202,324.288269 
	C391.138519,325.430756 390.539886,326.289825 389.941254,327.148926 
z"/>
<path fill="#A37D01" opacity="1.000000" stroke="none" 
	d="
M426.919800,16.968292 
	C428.059570,15.699421 429.199310,14.430563 430.618591,13.002474 
	C430.943176,14.173599 431.027649,15.503956 431.027649,16.834312 
	C431.028656,119.247749 431.023071,221.661179 430.669678,324.541626 
	C429.881348,325.006195 429.441284,325.003693 429.001221,324.532440 
	C429.001221,223.969116 429.001343,123.874557 429.000397,23.780008 
	C429.000397,22.281157 429.229767,20.724850 428.892456,19.304518 
	C428.682281,18.419544 427.606903,17.740028 426.919800,16.968292 
z"/>
<path fill="#B28802" opacity="1.000000" stroke="none" 
	d="
M257.916168,14.241014 
	C259.303375,14.737815 260.474548,15.613517 261.652710,17.131062 
	C261.439789,24.387140 261.123474,30.999950 261.025543,37.615993 
	C260.914948,45.087051 261.000183,45.026405 268.376495,45.012524 
	C287.502075,44.976532 306.627716,45.000328 325.753357,45.000313 
	C346.542084,45.000294 367.330811,44.982830 388.119446,45.027023 
	C390.235840,45.031521 393.183807,44.052528 392.740021,48.106346 
	C391.987915,48.475422 391.494568,48.737507 390.706909,48.702793 
	C388.606476,48.270432 386.800446,48.017799 384.994232,48.016598 
	C349.922089,47.993267 314.849609,47.913136 279.778137,48.067314 
	C272.176025,48.100739 264.353241,46.450073 257.022522,50.004936 
	C257.004517,39.645725 256.958099,29.286394 257.001404,18.927437 
	C257.007416,17.490648 257.456268,16.055710 257.916168,14.241014 
z"/>
<path fill="#AB850B" opacity="1.000000" stroke="none" 
	d="
M257.092773,50.406372 
	C264.353241,46.450073 272.176025,48.100739 279.778137,48.067314 
	C314.849609,47.913136 349.922089,47.993267 384.994232,48.016598 
	C386.800446,48.017799 388.606476,48.270432 390.705811,48.952000 
	C390.999054,49.498001 390.997559,49.996391 390.997559,49.996391 
	C390.185608,50.580906 389.373688,51.165421 388.287994,51.875961 
	C346.231964,51.997173 304.449615,52.007298 262.667450,51.937588 
	C260.832001,51.934525 258.997833,51.201046 257.092773,50.406372 
z"/>
<path fill="#AB850B" opacity="1.000000" stroke="none" 
	d="
M429.001221,325.001221 
	C429.441284,325.003693 429.881348,325.006195 430.651062,325.010803 
	C430.048615,326.019836 429.122223,327.896088 428.183563,327.902252 
	C415.648895,327.984406 403.112488,327.804962 390.258911,327.419769 
	C390.539886,326.289825 391.138519,325.430756 392.135254,324.168304 
	C393.023651,323.180511 393.513947,322.596100 394.453979,322.009644 
	C404.266266,321.674805 413.628815,321.342010 423.100769,321.227203 
	C423.409637,321.717865 423.670502,321.904816 424.036102,322.326355 
	C424.719604,323.098572 425.359802,323.550507 426.205627,324.264862 
	C427.274597,324.685272 428.137909,324.843262 429.001221,325.001221 
z"/>
<path fill="#B38904" opacity="1.000000" stroke="none" 
	d="
M206.972000,158.055038 
	C203.046280,158.172379 204.031250,155.231689 204.028519,153.113464 
	C203.989441,122.809380 204.001831,92.505226 204.001831,62.201096 
	C204.001831,50.945290 204.000092,51.064110 192.811813,50.900578 
	C179.858826,50.711246 166.909271,50.285507 153.390961,49.561913 
	C152.474823,48.833721 152.128738,48.223072 151.776672,48.219608 
	C142.456741,48.128048 133.135880,48.062592 123.816490,48.144344 
	C123.214600,48.149628 122.623390,49.372051 122.027214,50.028290 
	C122.027214,50.028290 122.004730,50.012642 121.613144,50.096691 
	C120.814682,51.840622 120.056549,53.499733 120.052887,55.160503 
	C119.982643,87.079262 119.983971,118.998238 120.047981,150.917023 
	C120.051399,152.621841 120.737122,154.325272 121.105217,156.029358 
	C119.203056,156.679916 117.333389,157.739914 115.391830,157.893967 
	C111.602180,158.194672 107.772316,157.988785 103.193085,157.695007 
	C96.900116,157.033981 91.376198,156.582031 85.843292,156.393494 
	C84.909523,156.361664 83.937042,157.465759 82.982452,158.045029 
	C82.640320,156.657623 82.000031,155.270401 81.999229,153.882797 
	C81.972412,107.176155 82.006477,60.469475 82.381218,13.428435 
	C83.827774,14.047340 84.924797,15.000606 86.012726,16.426870 
	C86.002647,59.558033 86.071266,102.216469 85.905083,144.873993 
	C85.886116,149.742767 87.412170,151.348450 92.204216,151.085098 
	C98.517258,150.738174 104.865768,150.900177 111.195030,151.033356 
	C115.327492,151.120300 117.131874,149.704483 117.083717,145.212906 
	C116.883644,126.552086 116.999924,107.887871 116.999626,89.224907 
	C116.999413,75.560951 117.077576,61.896332 116.962334,48.233345 
	C116.909782,42.003796 116.738274,41.901337 123.056778,42.021965 
	C136.787476,42.284100 150.514374,42.787926 164.245743,42.958912 
	C177.574387,43.124878 190.906662,42.998310 204.237350,43.000130 
	C206.004532,43.000370 207.771698,43.000164 209.866989,43.000164 
	C209.506470,45.544495 209.038986,47.315559 209.036575,49.087265 
	C208.991928,81.747391 209.035629,114.407677 208.948975,147.067642 
	C208.940735,150.172546 210.047226,151.118362 213.033401,151.048920 
	C219.861710,150.890091 226.697174,150.928024 233.527817,151.023468 
	C237.482132,151.078720 239.085373,149.572144 239.072128,145.381012 
	C238.937866,102.890053 238.968613,60.398567 239.068939,17.695446 
	C239.407394,17.228426 239.686874,17.081161 240.201385,17.380619 
	C240.919464,19.898251 241.925598,22.076088 241.930435,24.256151 
	C242.023621,66.224953 241.983932,108.194038 242.041855,150.162964 
	C242.044998,152.432648 242.663223,154.701477 242.775406,157.081238 
	C242.279053,157.385651 242.077042,157.639038 241.949646,157.951935 
	C238.943222,157.961563 235.936798,157.971191 232.176331,157.685593 
	C226.969650,157.260178 222.512970,156.953079 218.065628,157.054581 
	C214.362061,157.139130 210.669464,157.703308 206.972000,158.055038 
z"/>
<path fill="#F5CC37" opacity="1.000000" stroke="none" 
	d="
M240.023254,17.041864 
	C239.686874,17.081161 239.407394,17.228426 238.690063,17.867701 
	C236.574478,18.485949 234.952316,18.933308 233.332977,18.923357 
	C186.208572,18.633768 139.084213,18.322550 91.961037,17.887022 
	C89.975510,17.868671 88.001305,16.626116 86.021820,15.953871 
	C84.924797,15.000606 83.827774,14.047340 82.449356,12.952136 
	C82.069092,12.450178 81.970222,12.090158 81.907440,11.127992 
	C82.033356,10.069025 82.123177,9.612206 82.212997,9.155388 
	C92.166298,9.156165 102.119591,9.156943 112.537758,9.087252 
	C124.029869,9.074009 135.057114,9.131234 146.554565,9.158028 
	C147.024765,9.127595 147.357208,9.240701 147.525757,9.284874 
	C149.639648,9.856410 151.582993,10.834886 153.530655,10.843598 
	C183.675842,10.978438 213.821594,10.987447 244.424866,11.030062 
	C244.321869,12.126016 243.761246,13.217512 242.742584,14.643328 
	C241.530777,15.665721 240.777023,16.353794 240.023254,17.041864 
z"/>
<path fill="#AB8301" opacity="1.000000" stroke="none" 
	d="
M240.201385,17.380623 
	C240.777023,16.353794 241.530777,15.665721 242.595978,14.924278 
	C243.282150,17.127155 243.980667,19.382944 243.983826,21.639713 
	C244.046829,66.453033 244.029388,111.266457 243.765869,156.538162 
	C243.334045,156.987869 243.164581,156.979294 242.995117,156.970703 
	C242.663223,154.701477 242.044998,152.432648 242.041855,150.162964 
	C241.983932,108.194038 242.023621,66.224953 241.930435,24.256151 
	C241.925598,22.076088 240.919464,19.898251 240.201385,17.380623 
z"/>
<path fill="#A88000" opacity="1.000000" stroke="none" 
	d="
M121.384689,155.720200 
	C120.737122,154.325272 120.051399,152.621841 120.047981,150.917023 
	C119.983971,118.998238 119.982643,87.079262 120.052887,55.160503 
	C120.056549,53.499733 120.814682,51.840622 121.621948,50.099091 
	C122.025780,83.667824 122.033897,117.318207 122.017014,150.968582 
	C122.016273,152.449478 121.786987,153.930222 121.384689,155.720200 
z"/>
<path fill="#A37E0A" opacity="1.000000" stroke="none" 
	d="
M122.493164,50.021782 
	C122.623390,49.372051 123.214600,48.149628 123.816490,48.144344 
	C133.135880,48.062592 142.456741,48.128048 151.776672,48.219608 
	C152.128738,48.223072 152.474823,48.833721 152.928726,49.547501 
	C143.008881,49.960808 132.983994,49.988041 122.493164,50.021782 
z"/>
<path fill="#9C7C16" opacity="1.000000" stroke="none" 
	d="
M207.279327,158.337891 
	C210.669464,157.703308 214.362061,157.139130 218.065628,157.054581 
	C222.512970,156.953079 226.969650,157.260178 231.725494,157.679840 
	C227.667694,158.310074 223.311478,158.812622 218.944199,158.942520 
	C215.164886,159.054932 211.373001,158.744339 207.279327,158.337891 
z"/>
<path fill="#A07F15" opacity="1.000000" stroke="none" 
	d="
M83.286423,158.330322 
	C83.937042,157.465759 84.909523,156.361664 85.843292,156.393494 
	C91.376198,156.582031 96.900116,157.033981 102.727341,157.689362 
	C96.548553,158.192795 90.069481,158.404205 83.286423,158.330322 
z"/>
<path fill="#BC9109" opacity="1.000000" stroke="none" 
	d="
M81.889206,9.106143 
	C82.123177,9.612206 82.033356,10.069025 81.826492,10.858912 
	C81.234505,10.949852 80.759560,10.707723 80.138481,10.233906 
	C80.516701,9.687112 81.041054,9.372005 81.889206,9.106143 
z"/>
<path fill="#9C7C16" opacity="1.000000" stroke="none" 
	d="
M242.775406,157.081238 
	C243.164581,156.979294 243.334045,156.987869 243.757858,157.008011 
	C243.528656,157.332352 243.045090,157.645142 242.255585,157.954926 
	C242.077042,157.639038 242.279053,157.385651 242.775406,157.081238 
z"/>
<path fill="#8B8B8B" opacity="1.000000" stroke="none" 
	d="
M80.893913,179.024612 
	C80.893913,179.024612 81.001450,179.472458 80.817184,179.880585 
	C80.576378,180.807526 80.519844,181.326370 80.463303,181.845200 
	C80.583893,181.848557 80.704483,181.851898 80.825066,181.855255 
	C80.903152,181.211655 80.981247,180.568054 81.059334,179.924454 
	C81.978416,180.695099 82.897507,181.465744 83.927368,182.989044 
	C83.693703,197.855759 83.022072,211.970978 83.073021,226.083603 
	C83.178696,255.354492 83.750648,284.623383 83.971069,313.894287 
	C84.121559,333.879059 84.000603,353.865875 84.002975,373.851776 
	C84.003738,380.282928 84.006149,380.272430 90.136581,380.008148 
	C91.466530,379.950775 92.801010,379.997650 94.133400,379.997650 
	C202.556915,379.997559 310.980408,379.998505 419.403931,379.995087 
	C425.519836,379.994873 425.957947,379.575165 425.991119,373.510468 
	C426.028473,366.682159 426.008026,359.853485 426.012695,353.024994 
	C426.496033,352.678864 426.979370,352.332703 427.774445,351.997559 
	C428.745087,353.119263 429.956055,354.220428 429.975525,355.342285 
	C430.131775,364.336060 429.988800,373.334686 430.106720,382.329620 
	C430.143707,385.149414 429.105469,386.314667 426.315399,386.078217 
	C424.992157,385.966095 423.651428,386.061798 422.318604,386.061859 
	C309.196106,386.067322 196.073624,386.072601 82.329346,385.822968 
	C81.155663,385.370697 80.603783,385.173279 80.051895,384.975891 
	C79.716698,343.417908 79.192642,301.860107 79.147797,260.301788 
	C79.131905,245.571777 80.724068,230.841751 80.765968,216.109406 
	C80.801239,203.713257 79.652924,191.313721 79.289505,178.554443 
	C79.998260,178.470322 80.446083,178.747467 80.893913,179.024612 
z"/>
<path fill="#A2A2A2" opacity="1.000000" stroke="none" 
	d="
M80.942535,178.682556 
	C80.446083,178.747467 79.998260,178.470322 79.310196,178.084747 
	C79.023117,177.507919 78.976295,177.039520 78.928238,176.215103 
	C79.449593,175.928436 79.972176,175.997757 80.875061,176.186707 
	C81.167305,176.984390 81.079224,177.662460 80.942535,178.682556 
z"/>
<path fill="#7E7E7E" opacity="1.000000" stroke="none" 
	d="
M80.056717,385.271454 
	C80.603783,385.173279 81.155663,385.370697 81.861816,385.829376 
	C81.364571,385.916138 80.713051,385.741577 80.056717,385.271454 
z"/>
<path fill="#B18803" opacity="1.000000" stroke="none" 
	d="
M11.975948,51.019089 
	C11.333236,50.400230 10.126055,49.776428 10.131421,49.163242 
	C10.232079,37.662106 10.476536,26.162228 11.183091,14.328607 
	C12.435755,14.685012 13.196224,15.374897 13.794682,16.442604 
	C13.440502,25.616009 13.181421,34.411495 13.168554,43.207344 
	C13.167378,44.011108 14.745743,45.517277 15.586214,45.514141 
	C24.224030,45.481941 32.860348,45.094604 41.498371,45.048702 
	C45.238773,45.028820 46.064190,42.870438 45.968704,39.911709 
	C45.722698,32.288780 45.346962,24.670038 45.036846,16.806286 
	C45.050632,16.562946 45.074902,16.076090 45.348289,15.921644 
	C46.753517,14.855667 47.885349,13.944138 49.017185,13.032608 
	C49.014584,25.047333 49.011982,37.062057 48.590508,49.487877 
	C47.389801,49.637669 46.609783,49.154976 45.825882,49.148579 
	C35.589882,49.065075 25.352682,48.990498 15.117894,49.104053 
	C14.063626,49.115749 13.022937,50.351379 11.975948,51.019089 
z"/>
<path fill="#F6CE38" opacity="1.000000" stroke="none" 
	d="
M49.124557,12.768887 
	C47.885349,13.944138 46.753517,14.855667 44.872433,15.892309 
	C34.390518,16.046873 24.657854,16.076326 14.683498,16.085300 
	C14.441808,16.064819 13.956695,16.064783 13.956695,16.064783 
	C13.196224,15.374897 12.435755,14.685012 11.359970,13.940650 
	C10.418382,12.789958 9.792108,11.693741 9.171595,10.105027 
	C9.177354,9.612530 9.249560,9.259383 9.249560,9.259383 
	C23.099272,9.258933 36.948982,9.258483 51.235786,9.309263 
	C51.568546,9.874076 51.464211,10.387657 51.241013,11.135681 
	C50.492073,11.748472 49.862000,12.126819 49.124557,12.768887 
z"/>
<path fill="#A88413" opacity="1.000000" stroke="none" 
	d="
M12.277843,51.309341 
	C13.022937,50.351379 14.063626,49.115749 15.117894,49.104053 
	C25.352682,48.990498 35.589882,49.065075 45.825882,49.148579 
	C46.609783,49.154976 47.389801,49.637669 48.586880,49.957539 
	C48.219341,50.669258 47.436508,51.890274 46.653767,51.890213 
	C35.295746,51.889378 23.937744,51.724922 12.277843,51.309341 
z"/>
<path fill="#C99C0D" opacity="1.000000" stroke="none" 
	d="
M9.040106,9.232420 
	C9.249560,9.259383 9.177354,9.612530 9.136018,9.787512 
	C8.898921,9.797240 8.703160,9.631989 8.507400,9.466736 
	C8.615149,9.379642 8.722900,9.292549 9.040106,9.232420 
z"/>
<path fill="#949494" opacity="1.000000" stroke="none" 
	d="
M46.225986,72.010246 
	C46.832626,73.838097 47.964622,75.664719 47.968872,77.493965 
	C48.068356,120.321358 48.045918,163.149033 48.045921,205.976654 
	C48.045925,261.135956 48.045921,316.295258 48.045921,371.454559 
	C48.045921,375.397858 48.045921,379.341156 48.045921,384.006104 
	C41.948009,384.006104 35.334522,384.006378 28.721037,384.005981 
	C23.721704,384.005707 18.719250,383.898407 13.724263,384.045319 
	C10.926584,384.127594 9.697483,383.106110 9.963377,380.282990 
	C10.072278,379.126831 9.979272,377.951691 9.979271,376.785187 
	C9.979168,276.798523 9.975561,176.811859 10.003603,76.825203 
	C10.004199,74.700027 10.369446,72.574959 11.220714,70.230057 
	C12.900084,70.698067 13.923320,71.385857 15.009274,72.436569 
	C17.129343,73.861870 19.130451,75.683014 21.254877,75.840492 
	C27.008133,76.266930 32.840225,76.299263 38.583836,75.812622 
	C40.517246,75.648804 42.278625,73.454643 44.467064,72.135658 
	C45.285660,72.058662 45.755825,72.034454 46.225986,72.010246 
z"/>
<path fill="#D1D1D1" opacity="1.000000" stroke="none" 
	d="
M46.367279,71.705399 
	C45.755825,72.034454 45.285660,72.058662 43.989471,72.068710 
	C33.757812,72.060921 24.352184,72.067276 14.946557,72.073639 
	C13.923320,71.385857 12.900084,70.698067 11.577490,69.989182 
	C10.585953,68.922890 9.893773,67.877693 8.792259,66.214401 
	C22.877817,66.214401 36.221115,66.214401 50.897930,66.214401 
	C49.023842,68.428688 47.766209,69.914619 46.367279,71.705399 
z"/>
<path fill="#979797" opacity="1.000000" stroke="none" 
	d="
M425.673920,353.160919 
	C426.008026,359.853485 426.028473,366.682159 425.991119,373.510468 
	C425.957947,379.575165 425.519836,379.994873 419.403931,379.995087 
	C310.980408,379.998505 202.556915,379.997559 94.133400,379.997650 
	C92.801010,379.997650 91.466530,379.950775 90.136581,380.008148 
	C84.006149,380.272430 84.003738,380.282928 84.002975,373.851776 
	C84.000603,353.865875 84.121559,333.879059 83.971069,313.894287 
	C83.750648,284.623383 83.178696,255.354492 83.073021,226.083603 
	C83.022072,211.970978 83.693703,197.855759 84.081787,183.249908 
	C84.125427,182.758118 84.597969,182.822144 84.974419,183.211746 
	C87.939934,184.402908 90.528038,185.901398 93.118202,185.904968 
	C175.715973,186.018723 258.313995,186.006653 340.911774,185.893799 
	C343.599152,185.890121 346.284851,184.635117 348.980896,184.431366 
	C348.660339,191.519608 348.192963,198.136658 348.036957,204.761047 
	C347.866699,211.990860 347.992401,212.000092 340.920380,212.000244 
	C268.457642,212.001831 195.994873,212.001144 123.532120,212.001282 
	C115.001030,212.001312 114.939621,212.002396 115.011330,220.287064 
	C115.319504,255.892807 115.676773,291.498138 115.991364,327.103851 
	C116.051697,333.933136 115.917961,340.765015 116.052773,347.592194 
	C116.091011,349.528595 116.762009,351.452484 117.142807,353.382111 
	C116.905960,354.320160 116.669106,355.258179 116.245712,356.935028 
	C118.314629,356.935028 120.066925,356.935547 121.819214,356.934967 
	C158.622299,356.922546 195.425812,357.019012 232.228378,356.872986 
	C293.640289,356.629333 355.051880,356.266052 416.462311,355.788666 
	C419.426208,355.765656 422.377838,354.163574 425.673920,353.160919 
z"/>
<path fill="#8C8C8C" opacity="1.000000" stroke="none" 
	d="
M117.450836,353.254333 
	C116.762009,351.452484 116.091011,349.528595 116.052773,347.592194 
	C115.917961,340.765015 116.051697,333.933136 115.991364,327.103851 
	C115.676773,291.498138 115.319504,255.892807 115.011330,220.287064 
	C114.939621,212.002396 115.001030,212.001312 123.532120,212.001282 
	C195.994873,212.001144 268.457642,212.001831 340.920380,212.000244 
	C347.992401,212.000092 347.866699,211.990860 348.036957,204.761047 
	C348.192963,198.136658 348.660339,191.519608 349.001709,184.130325 
	C349.053650,182.961807 349.094452,182.562302 349.135254,182.162781 
	C350.782532,181.075241 352.429840,179.987686 354.389404,178.802704 
	C354.793854,181.160599 354.885986,183.615952 354.574921,186.623108 
	C354.111298,194.449387 354.050903,201.723862 353.990509,208.998322 
	C354.029907,220.001831 354.029907,220.001587 343.070068,220.001877 
	C269.692841,220.003723 196.315613,220.005676 122.318314,219.782074 
	C121.295326,219.554001 120.892387,219.551437 120.489456,219.548874 
	C120.659889,220.032578 120.830330,220.516296 121.000771,221.000000 
	C121.000717,221.750687 121.000656,222.501373 120.695557,223.920288 
	C120.281647,224.900070 120.077698,225.211533 120.077385,225.523193 
	C120.043594,259.216888 120.006058,292.910614 120.087082,326.604095 
	C120.089828,327.747345 121.294075,328.887756 121.938278,330.029480 
	C121.954651,335.912537 121.971031,341.795624 121.961967,348.190186 
	C120.543983,350.176636 119.151428,351.651611 117.450836,353.254333 
z"/>
<path fill="#7C7C7C" opacity="1.000000" stroke="none" 
	d="
M121.969772,329.558807 
	C121.294075,328.887756 120.089828,327.747345 120.087082,326.604095 
	C120.006058,292.910614 120.043594,259.216888 120.077385,225.523193 
	C120.077698,225.211533 120.281647,224.900070 120.687515,224.295547 
	C121.306564,225.566910 121.906448,227.130646 121.909752,228.695663 
	C121.980522,262.159729 121.984390,295.623962 121.969772,329.558807 
z"/>
<path fill="#7C7C7C" opacity="1.000000" stroke="none" 
	d="
M354.289673,208.706680 
	C354.050903,201.723862 354.111298,194.449387 354.562500,187.076080 
	C354.831787,194.123154 354.710327,201.269104 354.289673,208.706680 
z"/>
<path fill="#7C7C7C" opacity="1.000000" stroke="none" 
	d="
M121.224236,220.898590 
	C120.830330,220.516296 120.659889,220.032578 120.489456,219.548874 
	C120.892387,219.551437 121.295326,219.554001 121.849731,219.781113 
	C121.910866,220.335342 121.726364,220.599182 121.224236,220.898590 
z"/>
<path fill="#B2B2B2" opacity="1.000000" stroke="none" 
	d="
M348.656982,182.098114 
	C349.094452,182.562302 349.053650,182.961807 348.992096,183.662369 
	C346.284851,184.635117 343.599152,185.890121 340.911774,185.893799 
	C258.313995,186.006653 175.715973,186.018723 93.118202,185.904968 
	C90.528038,185.901398 87.939934,184.402908 85.209183,183.253387 
	C152.958740,182.601868 220.849899,182.275864 288.741302,182.008698 
	C308.553436,181.930740 328.366211,182.020554 348.656982,182.098114 
z"/>
<path fill="#BA8F04" opacity="1.000000" stroke="none" 
	d="
M422.991333,321.009216 
	C413.628815,321.342010 404.266266,321.674805 394.286774,321.624817 
	C393.446533,319.115448 393.028809,316.988983 393.028015,314.862366 
	C392.994965,225.908035 392.999207,136.953690 392.998779,47.999355 
	C393.183807,44.052528 390.235840,45.031521 388.119446,45.027023 
	C367.330811,44.982830 346.542084,45.000294 325.753357,45.000313 
	C306.627716,45.000328 287.502075,44.976532 268.376495,45.012524 
	C261.000183,45.026405 260.914948,45.087051 261.025543,37.615993 
	C261.123474,30.999950 261.439789,24.387140 261.826752,17.390596 
	C261.993835,17.008289 262.470947,17.019999 262.749176,17.357384 
	C263.684937,18.463461 264.342468,19.232153 265.000000,20.469360 
	C265.000000,25.770678 264.998627,30.603483 265.000305,35.436287 
	C265.002899,42.912785 265.073303,42.996655 272.526520,42.997620 
	C311.522095,43.002655 350.517670,42.999203 389.513245,43.000782 
	C395.994202,43.001045 395.999176,43.005795 395.999268,49.477348 
	C396.000397,134.301041 396.000000,219.124725 396.000000,303.948425 
	C396.000000,307.114746 396.232239,310.302277 395.944885,313.442291 
	C395.530518,317.969666 397.526581,319.293945 401.777100,319.065643 
	C406.928314,318.788971 412.117889,318.780975 417.268036,319.067627 
	C421.575653,319.307343 423.083649,317.854523 423.078430,313.401917 
	C422.964386,215.913223 422.977692,118.424385 423.174255,20.680569 
	C424.225861,20.244959 425.069794,20.064354 425.940735,20.358978 
	C425.978485,120.556137 425.989227,220.278076 425.679810,320.024353 
	C424.570221,320.368896 423.780762,320.689056 422.991333,321.009216 
z"/>
<path fill="#B08603" opacity="1.000000" stroke="none" 
	d="
M426.000000,320.000000 
	C425.989227,220.278076 425.978485,120.556137 425.952454,20.001064 
	C425.959442,18.445744 425.981720,17.723566 426.003967,17.001389 
	C426.003967,17.001389 426.461426,16.954041 426.690613,16.961174 
	C427.606903,17.740028 428.682281,18.419544 428.892456,19.304518 
	C429.229767,20.724850 429.000397,22.281157 429.000397,23.780008 
	C429.001343,123.874557 429.001221,223.969116 429.001221,324.532440 
	C428.137909,324.843262 427.274597,324.685272 426.205688,323.931274 
	C426.000458,322.890594 426.000824,322.445892 426.001251,321.667694 
	C426.000854,320.889435 426.000427,320.444733 426.000000,320.000000 
z"/>
<path fill="#D8AB1A" opacity="1.000000" stroke="none" 
	d="
M425.534912,16.996082 
	C425.981720,17.723566 425.959442,18.445744 425.925446,19.525833 
	C425.069794,20.064354 424.225861,20.244959 422.709534,20.696728 
	C371.627991,20.973866 321.218872,20.990786 270.809753,20.944204 
	C268.872864,20.942413 266.936584,20.329172 265.000000,20.000849 
	C264.342468,19.232153 263.684937,18.463461 262.986420,17.382923 
	C316.985565,17.044312 371.025726,17.017544 425.534912,16.996082 
z"/>
<path fill="#B78C03" opacity="1.000000" stroke="none" 
	d="
M392.740021,48.106346 
	C392.999207,136.953690 392.994965,225.908035 393.028015,314.862366 
	C393.028809,316.988983 393.446533,319.115448 393.837036,321.626831 
	C393.513947,322.596100 393.023651,323.180511 392.267273,323.884888 
	C391.667480,321.222443 391.043732,318.440155 391.042084,315.657501 
	C390.990601,227.416534 390.999481,139.175522 390.998413,50.465458 
	C390.997559,49.996391 390.999054,49.498001 391.000122,49.248795 
	C391.494568,48.737507 391.987915,48.475422 392.740021,48.106346 
z"/>
<path fill="#B78C03" opacity="1.000000" stroke="none" 
	d="
M425.679810,320.024353 
	C426.000427,320.444733 426.000854,320.889435 425.666534,321.667480 
	C424.885437,322.002563 424.439117,322.004333 423.992767,322.006104 
	C423.670502,321.904816 423.409637,321.717865 423.100769,321.227203 
	C423.780762,320.689056 424.570221,320.368896 425.679810,320.024353 
z"/>
<path fill="#B38904" opacity="1.000000" stroke="none" 
	d="
M424.036102,322.326355 
	C424.439117,322.004333 424.885437,322.002563 425.666504,322.001038 
	C426.000824,322.445892 426.000458,322.890594 426.000031,323.668854 
	C425.359802,323.550507 424.719604,323.098572 424.036102,322.326355 
z"/>
<path fill="#BE9306" opacity="1.000000" stroke="none" 
	d="
M86.012726,16.426870 
	C88.001305,16.626116 89.975510,17.868671 91.961037,17.887022 
	C139.084213,18.322550 186.208572,18.633768 233.332977,18.923357 
	C234.952316,18.933308 236.574478,18.485949 238.574203,18.079487 
	C238.968613,60.398567 238.937866,102.890053 239.072128,145.381012 
	C239.085373,149.572144 237.482132,151.078720 233.527817,151.023468 
	C226.697174,150.928024 219.861710,150.890091 213.033401,151.048920 
	C210.047226,151.118362 208.940735,150.172546 208.948975,147.067642 
	C209.035629,114.407677 208.991928,81.747391 209.036575,49.087265 
	C209.038986,47.315559 209.506470,45.544495 209.866989,43.000164 
	C207.771698,43.000164 206.004532,43.000370 204.237350,43.000130 
	C190.906662,42.998310 177.574387,43.124878 164.245743,42.958912 
	C150.514374,42.787926 136.787476,42.284100 123.056778,42.021965 
	C116.738274,41.901337 116.909782,42.003796 116.962334,48.233345 
	C117.077576,61.896332 116.999413,75.560951 116.999626,89.224907 
	C116.999924,107.887871 116.883644,126.552086 117.083717,145.212906 
	C117.131874,149.704483 115.327492,151.120300 111.195030,151.033356 
	C104.865768,150.900177 98.517258,150.738174 92.204216,151.085098 
	C87.412170,151.348450 85.886116,149.742767 85.905083,144.873993 
	C86.071266,102.216469 86.002647,59.558033 86.012726,16.426870 
z"/>
<path fill="#A2A2A2" opacity="1.000000" stroke="none" 
	d="
M81.049271,179.966370 
	C80.981247,180.568054 80.903152,181.211655 80.825066,181.855255 
	C80.704483,181.851898 80.583893,181.848557 80.463303,181.845200 
	C80.519844,181.326370 80.576378,180.807526 80.858246,180.107162 
	C81.083580,179.925629 81.039215,180.008270 81.049271,179.966370 
z"/>
<path fill="#BD9105" opacity="1.000000" stroke="none" 
	d="
M13.794682,16.442604 
	C13.956695,16.064783 14.441808,16.064819 14.754812,16.443333 
	C17.288698,17.877693 19.438822,19.603992 21.745443,19.847424 
	C26.307207,20.328857 30.994165,20.353245 35.554893,19.867451 
	C38.774467,19.524509 41.871387,18.030012 45.023064,17.049625 
	C45.346962,24.670038 45.722698,32.288780 45.968704,39.911709 
	C46.064190,42.870438 45.238773,45.028820 41.498371,45.048702 
	C32.860348,45.094604 24.224030,45.481941 15.586214,45.514141 
	C14.745743,45.517277 13.167378,44.011108 13.168554,43.207344 
	C13.181421,34.411495 13.440502,25.616009 13.794682,16.442604 
z"/>
<path fill="#D9AC1B" opacity="1.000000" stroke="none" 
	d="
M45.036850,16.806286 
	C41.871387,18.030012 38.774467,19.524509 35.554893,19.867451 
	C30.994165,20.353245 26.307207,20.328857 21.745443,19.847424 
	C19.438822,19.603992 17.288698,17.877693 14.996502,16.463814 
	C24.657854,16.076326 34.390518,16.046873 44.599045,16.046757 
	C45.074902,16.076090 45.050632,16.562946 45.036850,16.806286 
z"/>
<path fill="#AFAFAF" opacity="1.000000" stroke="none" 
	d="
M15.009274,72.436569 
	C24.352184,72.067276 33.757812,72.060921 43.641037,72.121506 
	C42.278625,73.454643 40.517246,75.648804 38.583836,75.812622 
	C32.840225,76.299263 27.008133,76.266930 21.254877,75.840492 
	C19.130451,75.683014 17.129343,73.861870 15.009274,72.436569 
z"/>
<path fill="#BE9205" opacity="1.000000" stroke="none" 
	d="
M265.000000,20.469364 
	C266.936584,20.329172 268.872864,20.942413 270.809753,20.944204 
	C321.218872,20.990786 371.627991,20.973866 422.501862,20.951735 
	C422.977692,118.424385 422.964386,215.913223 423.078430,313.401917 
	C423.083649,317.854523 421.575653,319.307343 417.268036,319.067627 
	C412.117889,318.780975 406.928314,318.788971 401.777100,319.065643 
	C397.526581,319.293945 395.530518,317.969666 395.944885,313.442291 
	C396.232239,310.302277 396.000000,307.114746 396.000000,303.948425 
	C396.000000,219.124725 396.000397,134.301041 395.999268,49.477348 
	C395.999176,43.005795 395.994202,43.001045 389.513245,43.000782 
	C350.517670,42.999203 311.522095,43.002655 272.526520,42.997620 
	C265.073303,42.996655 265.002899,42.912785 265.000305,35.436287 
	C264.998627,30.603483 265.000000,25.770678 265.000000,20.469364 
z"/>
</svg>